solid OpenSCAD_Model
  facet normal -1.75552e-16 -6.85682e-17 1
    outer loop
      vertex -32 3.13706 7.5
      vertex -1.99931 17 7.5
      vertex -2 17.0018 7.5
    endloop
  endfacet
  facet normal -2.04899e-16 8.00307e-17 1
    outer loop
      vertex -32.0876 -5.25 7.5
      vertex -2 -17.0018 7.5
      vertex -1.99931 -17 7.5
    endloop
  endfacet
  facet normal -4.44242e-16 -5.32855e-16 1
    outer loop
      vertex -1.66533e-15 -17 7.5
      vertex -32.0876 -5.25 7.5
      vertex -1.99931 -17 7.5
    endloop
  endfacet
  facet normal -7.16185e-17 -3.4723e-16 1
    outer loop
      vertex -32 3.13706 7.5
      vertex -2 14.8546 7.5
      vertex -1.66533e-15 17 7.5
    endloop
  endfacet
  facet normal -4.44242e-16 5.12901e-16 1
    outer loop
      vertex -32 3.13706 7.5
      vertex -1.66533e-15 17 7.5
      vertex -1.99931 17 7.5
    endloop
  endfacet
  facet normal -1.80802e-16 0 1
    outer loop
      vertex -32.0876 5.25 7.5
      vertex -37 5.25 7.5
      vertex -32.0876 -5.25 7.5
    endloop
  endfacet
  facet normal -1.01423e-14 0 1
    outer loop
      vertex -32 -3.13706 7.5
      vertex -32.0876 5.25 7.5
      vertex -32.0876 -5.25 7.5
    endloop
  endfacet
  facet normal -1.80802e-16 0 1
    outer loop
      vertex -37 5.25 7.5
      vertex -37 -5.25 7.5
      vertex -32.0876 -5.25 7.5
    endloop
  endfacet
  facet normal -1.48064e-16 2.75965e-16 1
    outer loop
      vertex -1.66533e-15 -17 7.5
      vertex -2 -14.8546 7.5
      vertex -32.0876 -5.25 7.5
    endloop
  endfacet
  facet normal -4.44089e-16 0 1
    outer loop
      vertex -1.66533e-15 -17 7.5
      vertex -1.66533e-15 17 7.5
      vertex -2 -14.8546 7.5
    endloop
  endfacet
  facet normal -1.01423e-14 0 1
    outer loop
      vertex -32 3.13706 7.5
      vertex -32.0876 5.25 7.5
      vertex -32 -3.13706 7.5
    endloop
  endfacet
  facet normal -3.93964e-16 4.04024e-16 1
    outer loop
      vertex -2 17.0018 7.5
      vertex -32.0876 5.25 7.5
      vertex -32 3.13706 7.5
    endloop
  endfacet
  facet normal -4.44089e-16 0 1
    outer loop
      vertex -2 -14.8546 7.5
      vertex -1.66533e-15 17 7.5
      vertex -2 14.8546 7.5
    endloop
  endfacet
  facet normal -3.65508e-16 -4.05203e-16 1
    outer loop
      vertex -2 -14.8546 7.5
      vertex -32 -3.13706 7.5
      vertex -32.0876 -5.25 7.5
    endloop
  endfacet
  facet normal 0.93147 -0.363818 2.06831e-16
    outer loop
      vertex -2 -17.0018 -7.5
      vertex -1.99931 -17 -7.5
      vertex -1.99931 -17 7.5
    endloop
  endfacet
  facet normal 0.93147 -0.363818 2.20616e-16
    outer loop
      vertex -2 -17.0018 7.5
      vertex -2 -17.0018 -7.5
      vertex -1.99931 -17 7.5
    endloop
  endfacet
  facet normal -0.363818 -0.93147 -1.03451e-16
    outer loop
      vertex -2 -17.0018 -7.5
      vertex -32 -5.2842 7.49731
      vertex -32 -5.2842 -7.49731
    endloop
  endfacet
  facet normal -0.363818 -0.93147 3.29599e-13
    outer loop
      vertex -32.0876 -5.25 7.5
      vertex -32 -5.2842 7.49731
      vertex -2 -17.0018 7.5
    endloop
  endfacet
  facet normal -0.363818 -0.93147 1.46739e-13
    outer loop
      vertex -32.0876 -5.25 -7.5
      vertex -2 -17.0018 -7.5
      vertex -32 -5.2842 -7.49731
    endloop
  endfacet
  facet normal -0.363818 -0.93147 -8.61695e-17
    outer loop
      vertex -2 -17.0018 -7.5
      vertex -2 -17.0018 7.5
      vertex -32 -5.2842 7.49731
    endloop
  endfacet
  facet normal -1.80245e-16 -0.0784588 0.996917
    outer loop
      vertex -32.0876 -5.25 7.5
      vertex -37 -5.25 7.5
      vertex -37 -6.42326 7.40766
    endloop
  endfacet
  facet normal -5.34235e-15 -0.0784588 0.996917
    outer loop
      vertex -32 -5.2842 7.49731
      vertex -32.0876 -5.25 7.5
      vertex -32 -6.42326 7.40766
    endloop
  endfacet
  facet normal -3.54176e-16 -0.0784588 0.996917
    outer loop
      vertex -32 -6.42326 7.40766
      vertex -32.0876 -5.25 7.5
      vertex -37 -6.42326 7.40766
    endloop
  endfacet
  facet normal -1 0 0
    outer loop
      vertex -37 -5.25 7.5
      vertex -37 5.25 7.5
      vertex -37 -6.42326 7.40766
    endloop
  endfacet
  facet normal -1 -0 0
    outer loop
      vertex -37 -6.42326 7.40766
      vertex -37 5.25 7.5
      vertex -37 6.42326 7.40766
    endloop
  endfacet
  facet normal -1 0 0
    outer loop
      vertex -37 -6.42326 7.40766
      vertex -37 6.42326 7.40766
      vertex -37 7.56763 7.13292
    endloop
  endfacet
  facet normal -1 0 0
    outer loop
      vertex -37 -6.42326 7.40766
      vertex -37 7.56763 7.13292
      vertex -37 8.65493 6.68255
    endloop
  endfacet
  facet normal -1 0 0
    outer loop
      vertex -37 -6.42326 7.40766
      vertex -37 8.65493 6.68255
      vertex -37 9.65839 6.06763
    endloop
  endfacet
  facet normal -1 0 0
    outer loop
      vertex -37 -6.42326 7.40766
      vertex -37 9.65839 6.06763
      vertex -37 10.5533 5.3033
    endloop
  endfacet
  facet normal -1 0 0
    outer loop
      vertex -37 -6.42326 7.40766
      vertex -37 10.5533 5.3033
      vertex -37 11.3176 4.40839
    endloop
  endfacet
  facet normal -1 0 0
    outer loop
      vertex -37 -6.42326 7.40766
      vertex -37 11.3176 4.40839
      vertex -37 11.9325 3.40493
    endloop
  endfacet
  facet normal -1 0 0
    outer loop
      vertex -37 -6.42326 7.40766
      vertex -37 11.9325 3.40493
      vertex -37 12.3829 2.31763
    endloop
  endfacet
  facet normal -1 0 0
    outer loop
      vertex -37 -6.42326 7.40766
      vertex -37 12.3829 2.31763
      vertex -37 12.6577 1.17326
    endloop
  endfacet
  facet normal -1 0 0
    outer loop
      vertex -37 -6.42326 7.40766
      vertex -37 12.6577 1.17326
      vertex -37 12.75 -8.21565e-15
    endloop
  endfacet
  facet normal -1 -2.27077e-15 -5.87744e-15
    outer loop
      vertex -37 -6.42326 7.40766
      vertex -37 12.75 -8.21565e-15
      vertex -37 12.6577 -1.17326
    endloop
  endfacet
  facet normal -1 3.36097e-16 -8.06898e-17
    outer loop
      vertex -37 -6.42326 7.40766
      vertex -37 12.6577 -1.17326
      vertex -37 12.3829 -2.31763
    endloop
  endfacet
  facet normal -1 3.1117e-16 -1.28891e-16
    outer loop
      vertex -37 -6.42326 7.40766
      vertex -37 12.3829 -2.31763
      vertex -37 11.9325 -3.40493
    endloop
  endfacet
  facet normal -1 2.84424e-16 -1.74296e-16
    outer loop
      vertex -37 -6.42326 7.40766
      vertex -37 11.9325 -3.40493
      vertex -37 11.3176 -4.40839
    endloop
  endfacet
  facet normal -1 2.5529e-16 -2.18038e-16
    outer loop
      vertex -37 -6.42326 7.40766
      vertex -37 11.3176 -4.40839
      vertex -37 10.5533 -5.3033
    endloop
  endfacet
  facet normal -1 2.23026e-16 -2.6113e-16
    outer loop
      vertex -37 -6.42326 7.40766
      vertex -37 10.5533 -5.3033
      vertex -37 9.65839 -6.06763
    endloop
  endfacet
  facet normal -1 1.86635e-16 -3.0456e-16
    outer loop
      vertex -37 -6.42326 7.40766
      vertex -37 9.65839 -6.06763
      vertex -37 8.65493 -6.68255
    endloop
  endfacet
  facet normal -1 1.44728e-16 -3.49405e-16
    outer loop
      vertex -37 -6.42326 7.40766
      vertex -37 8.65493 -6.68255
      vertex -37 7.56763 -7.13292
    endloop
  endfacet
  facet normal -1 9.53023e-17 -3.96962e-16
    outer loop
      vertex -37 -6.42326 7.40766
      vertex -37 7.56763 -7.13292
      vertex -37 6.42326 -7.40766
    endloop
  endfacet
  facet normal -1 3.53339e-17 -4.48961e-16
    outer loop
      vertex -37 -6.42326 7.40766
      vertex -37 6.42326 -7.40766
      vertex -37 5.25 -7.5
    endloop
  endfacet
  facet normal -1 0 -4.76629e-16
    outer loop
      vertex -37 -6.42326 7.40766
      vertex -37 5.25 -7.5
      vertex -37 -5.25 -7.5
    endloop
  endfacet
  facet normal -1 -3.77452e-17 -4.796e-16
    outer loop
      vertex -37 -6.42326 7.40766
      vertex -37 -5.25 -7.5
      vertex -37 -6.42326 -7.40766
    endloop
  endfacet
  facet normal -1 -1.15142e-16 -4.796e-16
    outer loop
      vertex -37 -6.42326 7.40766
      vertex -37 -6.42326 -7.40766
      vertex -37 -7.56763 -7.13292
    endloop
  endfacet
  facet normal -1 -1.9602e-16 -4.73235e-16
    outer loop
      vertex -37 -6.42326 7.40766
      vertex -37 -7.56763 -7.13292
      vertex -37 -8.65493 -6.68255
    endloop
  endfacet
  facet normal -1 -2.81684e-16 -4.59667e-16
    outer loop
      vertex -37 -6.42326 7.40766
      vertex -37 -8.65493 -6.68255
      vertex -37 -9.65839 -6.06763
    endloop
  endfacet
  facet normal -1 -3.7372e-16 -4.37571e-16
    outer loop
      vertex -37 -6.42326 7.40766
      vertex -37 -9.65839 -6.06763
      vertex -37 -10.5533 -5.3033
    endloop
  endfacet
  facet normal -1 -4.74131e-16 -4.04945e-16
    outer loop
      vertex -37 -6.42326 7.40766
      vertex -37 -10.5533 -5.3033
      vertex -37 -11.3176 -4.40839
    endloop
  endfacet
  facet normal -1 -5.85519e-16 -3.58807e-16
    outer loop
      vertex -37 -6.42326 7.40766
      vertex -37 -11.3176 -4.40839
      vertex -37 -11.9325 -3.40493
    endloop
  endfacet
  facet normal -1 -7.11396e-16 -2.9467e-16
    outer loop
      vertex -37 -6.42326 7.40766
      vertex -37 -11.9325 -3.40493
      vertex -37 -12.3829 -2.31763
    endloop
  endfacet
  facet normal -1 -8.56643e-16 -2.05662e-16
    outer loop
      vertex -37 -6.42326 7.40766
      vertex -37 -12.3829 -2.31763
      vertex -37 -12.6577 -1.17326
    endloop
  endfacet
  facet normal -1 6.49257e-15 -5.54518e-15
    outer loop
      vertex -37 -6.42326 7.40766
      vertex -37 -12.6577 -1.17326
      vertex -37 -12.75 -8.21565e-15
    endloop
  endfacet
  facet normal -1 0 0
    outer loop
      vertex -37 -6.42326 7.40766
      vertex -37 -12.75 -8.21565e-15
      vertex -37 -12.6577 1.17326
    endloop
  endfacet
  facet normal -1 0 0
    outer loop
      vertex -37 -6.42326 7.40766
      vertex -37 -12.6577 1.17326
      vertex -37 -12.3829 2.31763
    endloop
  endfacet
  facet normal -1 0 0
    outer loop
      vertex -37 -6.42326 7.40766
      vertex -37 -12.3829 2.31763
      vertex -37 -11.9325 3.40493
    endloop
  endfacet
  facet normal -1 0 0
    outer loop
      vertex -37 -6.42326 7.40766
      vertex -37 -11.9325 3.40493
      vertex -37 -11.3176 4.40839
    endloop
  endfacet
  facet normal -1 0 0
    outer loop
      vertex -37 -6.42326 7.40766
      vertex -37 -11.3176 4.40839
      vertex -37 -10.5533 5.3033
    endloop
  endfacet
  facet normal -1 0 0
    outer loop
      vertex -37 -6.42326 7.40766
      vertex -37 -10.5533 5.3033
      vertex -37 -9.65839 6.06763
    endloop
  endfacet
  facet normal -1 0 0
    outer loop
      vertex -37 -6.42326 7.40766
      vertex -37 -9.65839 6.06763
      vertex -37 -8.65493 6.68255
    endloop
  endfacet
  facet normal -1 0 0
    outer loop
      vertex -37 -6.42326 7.40766
      vertex -37 -8.65493 6.68255
      vertex -37 -7.56763 7.13292
    endloop
  endfacet
  facet normal -1.81022e-16 0.0784588 0.996917
    outer loop
      vertex -37 6.42326 7.40766
      vertex -37 5.25 7.5
      vertex -32.0876 5.25 7.5
    endloop
  endfacet
  facet normal -3.54176e-16 0.0784588 0.996917
    outer loop
      vertex -32 6.42326 7.40766
      vertex -37 6.42326 7.40766
      vertex -32 5.2842 7.49731
    endloop
  endfacet
  facet normal -2.19299e-15 0.0784588 0.996917
    outer loop
      vertex -32 5.2842 7.49731
      vertex -37 6.42326 7.40766
      vertex -32.0876 5.25 7.5
    endloop
  endfacet
  facet normal -0.363818 0.93147 3.29599e-13
    outer loop
      vertex -32.0876 5.25 7.5
      vertex -2 17.0018 7.5
      vertex -32 5.2842 7.49731
    endloop
  endfacet
  facet normal -0.363818 0.93147 -1.03414e-16
    outer loop
      vertex -32 5.2842 7.49731
      vertex -2 17.0018 7.5
      vertex -2 17.0018 -7.5
    endloop
  endfacet
  facet normal -0.363818 0.93147 5.77927e-13
    outer loop
      vertex -2 17.0018 -7.5
      vertex -32.0876 5.25 -7.5
      vertex -32 5.2842 -7.49731
    endloop
  endfacet
  facet normal -0.363818 0.93147 -8.62005e-17
    outer loop
      vertex -32 5.2842 7.49731
      vertex -2 17.0018 -7.5
      vertex -32 5.2842 -7.49731
    endloop
  endfacet
  facet normal 0.93147 0.363818 2.06825e-16
    outer loop
      vertex -2 17.0018 7.5
      vertex -1.99931 17 7.5
      vertex -1.99931 17 -7.5
    endloop
  endfacet
  facet normal 0.93147 0.363818 2.20616e-16
    outer loop
      vertex -2 17.0018 -7.5
      vertex -2 17.0018 7.5
      vertex -1.99931 17 -7.5
    endloop
  endfacet
  facet normal 0 1 0
    outer loop
      vertex -1.99931 17 7.5
      vertex -1.66533e-15 17 7.5
      vertex -1.99931 17 -7.5
    endloop
  endfacet
  facet normal 0 1 0
    outer loop
      vertex -1.99931 17 -7.5
      vertex -1.66533e-15 17 7.5
      vertex 1.66533e-15 17 -7.5
    endloop
  endfacet
  facet normal 1 0 2.22045e-16
    outer loop
      vertex -5.21032e-17 -9.98153 0.234652
      vertex -1.66533e-15 -17 7.5
      vertex 1.66533e-15 -17 -7.5
    endloop
  endfacet
  facet normal 1 0 2.22045e-16
    outer loop
      vertex -2.96765e-16 7.81901 1.33651
      vertex -1.66533e-15 17 7.5
      vertex 1.66533e-15 -17 -7.5
    endloop
  endfacet
  facet normal 1 0 2.22045e-16
    outer loop
      vertex -1.95772e-16 9.71352 0.881678
      vertex -1.51209e-16 9.83651 0.680986
      vertex 1.66533e-15 17 -7.5
    endloop
  endfacet
  facet normal 1 -0 2.22045e-16
    outer loop
      vertex -1.66533e-15 17 7.5
      vertex -1.66533e-15 -17 7.5
      vertex -3.28966e-16 -8.73465 1.48153
    endloop
  endfacet
  facet normal 1 0 2.22045e-16
    outer loop
      vertex 0 -10 0
      vertex -5.21032e-17 -9.98153 0.234652
      vertex 1.66533e-15 -17 -7.5
    endloop
  endfacet
  facet normal 1 0 2.22045e-16
    outer loop
      vertex -1.66533e-15 17 7.5
      vertex -3.28966e-16 -8.73465 1.48153
      vertex -3.33067e-16 -8.5 1.5
    endloop
  endfacet
  facet normal 1 0 2.22045e-16
    outer loop
      vertex 5.21032e-17 -9.98153 -0.234652
      vertex 0 -10 0
      vertex 1.66533e-15 -17 -7.5
    endloop
  endfacet
  facet normal 1 0 2.22045e-16
    outer loop
      vertex -1.66533e-15 17 7.5
      vertex -3.33067e-16 -8.5 1.5
      vertex -3.28966e-16 -8.26535 1.48153
    endloop
  endfacet
  facet normal 1 0 2.22045e-16
    outer loop
      vertex 3.28966e-16 8.26535 -1.48153
      vertex 3.16766e-16 8.03647 -1.42658
      vertex 1.66533e-15 -17 -7.5
    endloop
  endfacet
  facet normal 1 0 2.22045e-16
    outer loop
      vertex -1.66533e-15 17 7.5
      vertex -3.28966e-16 -8.26535 1.48153
      vertex -3.16766e-16 -8.03647 1.42658
    endloop
  endfacet
  facet normal 1 0 2.22045e-16
    outer loop
      vertex -1.66533e-15 17 7.5
      vertex -3.16766e-16 -8.03647 1.42658
      vertex -2.96765e-16 -7.81901 1.33651
    endloop
  endfacet
  facet normal 1 0 2.22045e-16
    outer loop
      vertex 1.51209e-16 -9.83651 -0.680986
      vertex 1.02923e-16 -9.92658 -0.463525
      vertex 1.66533e-15 -17 -7.5
    endloop
  endfacet
  facet normal 1 0 2.22045e-16
    outer loop
      vertex -1.66533e-15 17 7.5
      vertex -2.96765e-16 -7.81901 1.33651
      vertex -2.69457e-16 -7.61832 1.21352
    endloop
  endfacet
  facet normal 1 0 2.22045e-16
    outer loop
      vertex 1.95772e-16 -9.71352 -0.881678
      vertex 1.51209e-16 -9.83651 -0.680986
      vertex 1.66533e-15 -17 -7.5
    endloop
  endfacet
  facet normal 1 0 2.22045e-16
    outer loop
      vertex -1.66533e-15 17 7.5
      vertex -2.69457e-16 -7.61832 1.21352
      vertex -2.35514e-16 -7.43934 1.06066
    endloop
  endfacet
  facet normal 1 0 2.22045e-16
    outer loop
      vertex 2.35514e-16 -9.56066 -1.06066
      vertex 1.95772e-16 -9.71352 -0.881678
      vertex 1.66533e-15 -17 -7.5
    endloop
  endfacet
  facet normal 1 0 2.22045e-16
    outer loop
      vertex -1.66533e-15 17 7.5
      vertex -2.35514e-16 -7.43934 1.06066
      vertex -1.95772e-16 -7.28647 0.881678
    endloop
  endfacet
  facet normal 1 0 2.22045e-16
    outer loop
      vertex 1.02923e-16 -9.92658 -0.463525
      vertex 5.21032e-17 -9.98153 -0.234652
      vertex 1.66533e-15 -17 -7.5
    endloop
  endfacet
  facet normal 1 0 2.22045e-16
    outer loop
      vertex -1.66533e-15 17 7.5
      vertex -1.95772e-16 -7.28647 0.881678
      vertex -1.51209e-16 -7.16349 0.680986
    endloop
  endfacet
  facet normal 1 0 2.22045e-16
    outer loop
      vertex -1.66533e-15 17 7.5
      vertex -1.51209e-16 -7.16349 0.680986
      vertex -1.02923e-16 -7.07341 0.463525
    endloop
  endfacet
  facet normal 1 0 2.22045e-16
    outer loop
      vertex 2.96765e-16 -9.18099 -1.33651
      vertex 2.69457e-16 -9.38168 -1.21352
      vertex 1.66533e-15 -17 -7.5
    endloop
  endfacet
  facet normal 1 0 2.22045e-16
    outer loop
      vertex -1.66533e-15 17 7.5
      vertex -1.02923e-16 -7.07341 0.463525
      vertex -5.21032e-17 -7.01847 0.234652
    endloop
  endfacet
  facet normal 1 0 2.22045e-16
    outer loop
      vertex 3.16766e-16 -8.96352 -1.42658
      vertex 2.96765e-16 -9.18099 -1.33651
      vertex 1.66533e-15 -17 -7.5
    endloop
  endfacet
  facet normal 1 0 2.22045e-16
    outer loop
      vertex -1.66533e-15 17 7.5
      vertex -5.21032e-17 -7.01847 0.234652
      vertex 0 -7 0
    endloop
  endfacet
  facet normal 1 0 2.22045e-16
    outer loop
      vertex 3.28966e-16 -8.73465 -1.48153
      vertex 3.16766e-16 -8.96352 -1.42658
      vertex 1.66533e-15 -17 -7.5
    endloop
  endfacet
  facet normal 1 0 2.22045e-16
    outer loop
      vertex -1.66533e-15 17 7.5
      vertex 0 -7 0
      vertex 5.21032e-17 -7.01847 -0.234652
    endloop
  endfacet
  facet normal 1 0 2.22045e-16
    outer loop
      vertex 2.69457e-16 -9.38168 -1.21352
      vertex 2.35514e-16 -9.56066 -1.06066
      vertex 1.66533e-15 -17 -7.5
    endloop
  endfacet
  facet normal 1 0 2.22045e-16
    outer loop
      vertex -1.66533e-15 17 7.5
      vertex 5.21032e-17 -7.01847 -0.234652
      vertex 1.02923e-16 -7.07341 -0.463525
    endloop
  endfacet
  facet normal 1 0 2.22045e-16
    outer loop
      vertex -1.66533e-15 17 7.5
      vertex 1.02923e-16 -7.07341 -0.463525
      vertex 1.51209e-16 -7.16349 -0.680986
    endloop
  endfacet
  facet normal 1 0 2.22045e-16
    outer loop
      vertex 3.28966e-16 -8.26535 -1.48153
      vertex 3.33067e-16 -8.5 -1.5
      vertex 1.66533e-15 -17 -7.5
    endloop
  endfacet
  facet normal 1 0 2.22045e-16
    outer loop
      vertex -1.66533e-15 17 7.5
      vertex 1.51209e-16 -7.16349 -0.680986
      vertex 1.95772e-16 -7.28647 -0.881678
    endloop
  endfacet
  facet normal 1 0 2.22045e-16
    outer loop
      vertex 3.16766e-16 -8.03647 -1.42658
      vertex 3.28966e-16 -8.26535 -1.48153
      vertex 1.66533e-15 -17 -7.5
    endloop
  endfacet
  facet normal 1 0 2.22045e-16
    outer loop
      vertex -1.66533e-15 17 7.5
      vertex 1.95772e-16 -7.28647 -0.881678
      vertex 2.35514e-16 -7.43934 -1.06066
    endloop
  endfacet
  facet normal 1 0 2.22045e-16
    outer loop
      vertex -1.66533e-15 17 7.5
      vertex 2.69457e-16 -7.61832 -1.21352
      vertex 1.66533e-15 -17 -7.5
    endloop
  endfacet
  facet normal 1 0 2.22045e-16
    outer loop
      vertex -1.66533e-15 17 7.5
      vertex 2.35514e-16 -7.43934 -1.06066
      vertex 2.69457e-16 -7.61832 -1.21352
    endloop
  endfacet
  facet normal 1 0 2.22045e-16
    outer loop
      vertex 2.69457e-16 -7.61832 -1.21352
      vertex 2.96765e-16 -7.81901 -1.33651
      vertex 1.66533e-15 -17 -7.5
    endloop
  endfacet
  facet normal 1 0 2.22045e-16
    outer loop
      vertex -1.02923e-16 -9.92658 0.463525
      vertex -1.66533e-15 -17 7.5
      vertex -5.21032e-17 -9.98153 0.234652
    endloop
  endfacet
  facet normal 1 0 2.22045e-16
    outer loop
      vertex -1.51209e-16 -9.83651 0.680986
      vertex -1.66533e-15 -17 7.5
      vertex -1.02923e-16 -9.92658 0.463525
    endloop
  endfacet
  facet normal 1 0 2.22045e-16
    outer loop
      vertex -1.95772e-16 -9.71352 0.881678
      vertex -1.66533e-15 -17 7.5
      vertex -1.51209e-16 -9.83651 0.680986
    endloop
  endfacet
  facet normal 1 0 2.22045e-16
    outer loop
      vertex -2.35514e-16 -9.56066 1.06066
      vertex -1.66533e-15 -17 7.5
      vertex -1.95772e-16 -9.71352 0.881678
    endloop
  endfacet
  facet normal 1 0 2.22045e-16
    outer loop
      vertex -2.69457e-16 -9.38168 1.21352
      vertex -1.66533e-15 -17 7.5
      vertex -2.35514e-16 -9.56066 1.06066
    endloop
  endfacet
  facet normal 1 0 2.22045e-16
    outer loop
      vertex -2.96765e-16 -9.18099 1.33651
      vertex -1.66533e-15 -17 7.5
      vertex -2.69457e-16 -9.38168 1.21352
    endloop
  endfacet
  facet normal 1 0 2.22045e-16
    outer loop
      vertex -3.16766e-16 -8.96352 1.42658
      vertex -1.66533e-15 -17 7.5
      vertex -2.96765e-16 -9.18099 1.33651
    endloop
  endfacet
  facet normal 1 0 2.22045e-16
    outer loop
      vertex -3.28966e-16 -8.73465 1.48153
      vertex -1.66533e-15 -17 7.5
      vertex -3.16766e-16 -8.96352 1.42658
    endloop
  endfacet
  facet normal 1 0 2.22045e-16
    outer loop
      vertex -3.33067e-16 8.5 1.5
      vertex -1.66533e-15 17 7.5
      vertex -3.28966e-16 8.26535 1.48153
    endloop
  endfacet
  facet normal 1 0 2.22045e-16
    outer loop
      vertex -3.28966e-16 8.73465 1.48153
      vertex -1.66533e-15 17 7.5
      vertex -3.33067e-16 8.5 1.5
    endloop
  endfacet
  facet normal 1 0 2.22045e-16
    outer loop
      vertex -3.16766e-16 8.96352 1.42658
      vertex -1.66533e-15 17 7.5
      vertex -3.28966e-16 8.73465 1.48153
    endloop
  endfacet
  facet normal 1 0 2.22045e-16
    outer loop
      vertex -2.96765e-16 9.18099 1.33651
      vertex -1.66533e-15 17 7.5
      vertex -3.16766e-16 8.96352 1.42658
    endloop
  endfacet
  facet normal 1 0 2.22045e-16
    outer loop
      vertex -2.69457e-16 9.38168 1.21352
      vertex -1.66533e-15 17 7.5
      vertex -2.96765e-16 9.18099 1.33651
    endloop
  endfacet
  facet normal 1 0 2.22045e-16
    outer loop
      vertex -2.35514e-16 9.56066 1.06066
      vertex -1.66533e-15 17 7.5
      vertex -2.69457e-16 9.38168 1.21352
    endloop
  endfacet
  facet normal 1 0 2.22045e-16
    outer loop
      vertex 1.66533e-15 17 -7.5
      vertex -1.66533e-15 17 7.5
      vertex -2.35514e-16 9.56066 1.06066
    endloop
  endfacet
  facet normal 1 0 2.22045e-16
    outer loop
      vertex -1.51209e-16 9.83651 0.680986
      vertex -1.02923e-16 9.92658 0.463525
      vertex 1.66533e-15 17 -7.5
    endloop
  endfacet
  facet normal 1 0 2.22045e-16
    outer loop
      vertex 1.66533e-15 17 -7.5
      vertex -2.35514e-16 9.56066 1.06066
      vertex -1.95772e-16 9.71352 0.881678
    endloop
  endfacet
  facet normal 1 0 2.22045e-16
    outer loop
      vertex -1.02923e-16 9.92658 0.463525
      vertex -5.21032e-17 9.98153 0.234652
      vertex 1.66533e-15 17 -7.5
    endloop
  endfacet
  facet normal 1 0 2.22045e-16
    outer loop
      vertex -5.21032e-17 9.98153 0.234652
      vertex 0 10 0
      vertex 1.66533e-15 17 -7.5
    endloop
  endfacet
  facet normal 1 0 2.22045e-16
    outer loop
      vertex 0 10 0
      vertex 5.21032e-17 9.98153 -0.234652
      vertex 1.66533e-15 17 -7.5
    endloop
  endfacet
  facet normal 1 0 2.22045e-16
    outer loop
      vertex 5.21032e-17 9.98153 -0.234652
      vertex 1.02923e-16 9.92658 -0.463525
      vertex 1.66533e-15 17 -7.5
    endloop
  endfacet
  facet normal 1 0 2.22045e-16
    outer loop
      vertex 3.28966e-16 8.73465 -1.48153
      vertex 3.33067e-16 8.5 -1.5
      vertex 1.66533e-15 -17 -7.5
    endloop
  endfacet
  facet normal 1 0 2.22045e-16
    outer loop
      vertex -2.69457e-16 7.61832 1.21352
      vertex -2.96765e-16 7.81901 1.33651
      vertex 1.66533e-15 -17 -7.5
    endloop
  endfacet
  facet normal 1 0 2.22045e-16
    outer loop
      vertex 2.69457e-16 7.61832 -1.21352
      vertex 2.35514e-16 7.43934 -1.06066
      vertex 1.66533e-15 -17 -7.5
    endloop
  endfacet
  facet normal 1 0 2.22045e-16
    outer loop
      vertex 1.66533e-15 17 -7.5
      vertex 1.02923e-16 9.92658 -0.463525
      vertex 1.51209e-16 9.83651 -0.680986
    endloop
  endfacet
  facet normal 1 0 2.22045e-16
    outer loop
      vertex 2.96765e-16 7.81901 -1.33651
      vertex 2.69457e-16 7.61832 -1.21352
      vertex 1.66533e-15 -17 -7.5
    endloop
  endfacet
  facet normal 1 0 2.22045e-16
    outer loop
      vertex 1.66533e-15 17 -7.5
      vertex 1.51209e-16 9.83651 -0.680986
      vertex 1.95772e-16 9.71352 -0.881678
    endloop
  endfacet
  facet normal 1 0 2.22045e-16
    outer loop
      vertex 3.16766e-16 8.03647 -1.42658
      vertex 2.96765e-16 7.81901 -1.33651
      vertex 1.66533e-15 -17 -7.5
    endloop
  endfacet
  facet normal 1 0 2.22045e-16
    outer loop
      vertex 1.66533e-15 17 -7.5
      vertex 1.95772e-16 9.71352 -0.881678
      vertex 2.35514e-16 9.56066 -1.06066
    endloop
  endfacet
  facet normal 1 0 2.22045e-16
    outer loop
      vertex 1.66533e-15 17 -7.5
      vertex 2.35514e-16 9.56066 -1.06066
      vertex 2.69457e-16 9.38168 -1.21352
    endloop
  endfacet
  facet normal 1 0 2.22045e-16
    outer loop
      vertex 1.66533e-15 17 -7.5
      vertex 2.69457e-16 9.38168 -1.21352
      vertex 2.96765e-16 9.18099 -1.33651
    endloop
  endfacet
  facet normal 1 0 2.22045e-16
    outer loop
      vertex 3.33067e-16 8.5 -1.5
      vertex 3.28966e-16 8.26535 -1.48153
      vertex 1.66533e-15 -17 -7.5
    endloop
  endfacet
  facet normal 1 0 2.22045e-16
    outer loop
      vertex 1.66533e-15 17 -7.5
      vertex 2.96765e-16 9.18099 -1.33651
      vertex 3.16766e-16 8.96352 -1.42658
    endloop
  endfacet
  facet normal 1 -0 2.22045e-16
    outer loop
      vertex 1.66533e-15 17 -7.5
      vertex 3.28966e-16 8.73465 -1.48153
      vertex 1.66533e-15 -17 -7.5
    endloop
  endfacet
  facet normal 1 0 2.22045e-16
    outer loop
      vertex 1.66533e-15 17 -7.5
      vertex 3.16766e-16 8.96352 -1.42658
      vertex 3.28966e-16 8.73465 -1.48153
    endloop
  endfacet
  facet normal 1 0 2.22045e-16
    outer loop
      vertex 2.35514e-16 7.43934 -1.06066
      vertex 1.95772e-16 7.28647 -0.881678
      vertex 1.66533e-15 -17 -7.5
    endloop
  endfacet
  facet normal 1 0 2.22045e-16
    outer loop
      vertex 1.95772e-16 7.28647 -0.881678
      vertex 1.51209e-16 7.16349 -0.680986
      vertex 1.66533e-15 -17 -7.5
    endloop
  endfacet
  facet normal 1 0 2.22045e-16
    outer loop
      vertex 1.51209e-16 7.16349 -0.680986
      vertex 1.02923e-16 7.07341 -0.463525
      vertex 1.66533e-15 -17 -7.5
    endloop
  endfacet
  facet normal 1 0 2.22045e-16
    outer loop
      vertex 1.02923e-16 7.07341 -0.463525
      vertex 5.21032e-17 7.01847 -0.234652
      vertex 1.66533e-15 -17 -7.5
    endloop
  endfacet
  facet normal 1 0 2.22045e-16
    outer loop
      vertex 5.21032e-17 7.01847 -0.234652
      vertex 0 7 0
      vertex 1.66533e-15 -17 -7.5
    endloop
  endfacet
  facet normal 1 0 2.22045e-16
    outer loop
      vertex 0 7 0
      vertex -5.21032e-17 7.01847 0.234652
      vertex 1.66533e-15 -17 -7.5
    endloop
  endfacet
  facet normal 1 0 2.22045e-16
    outer loop
      vertex -5.21032e-17 7.01847 0.234652
      vertex -1.02923e-16 7.07341 0.463525
      vertex 1.66533e-15 -17 -7.5
    endloop
  endfacet
  facet normal 1 0 2.22045e-16
    outer loop
      vertex -1.02923e-16 7.07341 0.463525
      vertex -1.51209e-16 7.16349 0.680986
      vertex 1.66533e-15 -17 -7.5
    endloop
  endfacet
  facet normal 1 0 2.22045e-16
    outer loop
      vertex -1.51209e-16 7.16349 0.680986
      vertex -1.95772e-16 7.28647 0.881678
      vertex 1.66533e-15 -17 -7.5
    endloop
  endfacet
  facet normal 1 0 2.22045e-16
    outer loop
      vertex -1.95772e-16 7.28647 0.881678
      vertex -2.35514e-16 7.43934 1.06066
      vertex 1.66533e-15 -17 -7.5
    endloop
  endfacet
  facet normal 1 0 2.22045e-16
    outer loop
      vertex -2.35514e-16 7.43934 1.06066
      vertex -2.69457e-16 7.61832 1.21352
      vertex 1.66533e-15 -17 -7.5
    endloop
  endfacet
  facet normal 1 0 2.22045e-16
    outer loop
      vertex -3.16766e-16 8.03647 1.42658
      vertex -1.66533e-15 17 7.5
      vertex -2.96765e-16 7.81901 1.33651
    endloop
  endfacet
  facet normal 1 0 2.22045e-16
    outer loop
      vertex -3.28966e-16 8.26535 1.48153
      vertex -1.66533e-15 17 7.5
      vertex -3.16766e-16 8.03647 1.42658
    endloop
  endfacet
  facet normal 1 0 2.22045e-16
    outer loop
      vertex 2.96765e-16 -7.81901 -1.33651
      vertex 3.16766e-16 -8.03647 -1.42658
      vertex 1.66533e-15 -17 -7.5
    endloop
  endfacet
  facet normal 1 0 2.22045e-16
    outer loop
      vertex 3.33067e-16 -8.5 -1.5
      vertex 3.28966e-16 -8.73465 -1.48153
      vertex 1.66533e-15 -17 -7.5
    endloop
  endfacet
  facet normal 0 -1 0
    outer loop
      vertex -1.66533e-15 -17 7.5
      vertex -1.99931 -17 7.5
      vertex -1.99931 -17 -7.5
    endloop
  endfacet
  facet normal 0 -1 0
    outer loop
      vertex 1.66533e-15 -17 -7.5
      vertex -1.66533e-15 -17 7.5
      vertex -1.99931 -17 -7.5
    endloop
  endfacet
  facet normal 0.363818 0.93147 8.61695e-17
    outer loop
      vertex -32 -3.13706 -7.5
      vertex -32 -3.13706 7.5
      vertex -2 -14.8546 -7.5
    endloop
  endfacet
  facet normal 0.363818 0.93147 7.53983e-17
    outer loop
      vertex -2 -14.8546 -7.5
      vertex -32 -3.13706 7.5
      vertex -2 -14.8546 7.5
    endloop
  endfacet
  facet normal -1 1.41247e-17 -2.35217e-16
    outer loop
      vertex -2 -8.03647 -1.42659
      vertex -2 14.8546 7.5
      vertex -2 -14.8546 -7.5
    endloop
  endfacet
  facet normal -1 1.94929e-17 -2.07242e-16
    outer loop
      vertex -2 9.92658 -0.463525
      vertex -2 14.8546 7.5
      vertex -2 14.8546 -7.5
    endloop
  endfacet
  facet normal -1 -0 -2.22045e-16
    outer loop
      vertex -2 -14.8546 7.5
      vertex -2 14.8546 7.5
      vertex -2 -8.5 1.5
    endloop
  endfacet
  facet normal -1 1.61303e-17 -2.04961e-16
    outer loop
      vertex -2 -14.8546 7.5
      vertex -2 -8.5 1.5
      vertex -2 -8.73465 1.48153
    endloop
  endfacet
  facet normal -1 4.27167e-17 -1.77926e-16
    outer loop
      vertex -2 -14.8546 7.5
      vertex -2 -8.73465 1.48153
      vertex -2 -8.96352 1.42658
    endloop
  endfacet
  facet normal -1 6.4819e-17 -1.56487e-16
    outer loop
      vertex -2 -14.8546 7.5
      vertex -2 -8.96352 1.42658
      vertex -2 -9.18099 1.33651
    endloop
  endfacet
  facet normal -1 8.46881e-17 -1.38197e-16
    outer loop
      vertex -2 -14.8546 7.5
      vertex -2 -9.18099 1.33651
      vertex -2 -9.38168 1.21352
    endloop
  endfacet
  facet normal -1 1.03812e-16 -1.21548e-16
    outer loop
      vertex -2 -14.8546 7.5
      vertex -2 -9.38168 1.21352
      vertex -2 -9.56066 1.06066
    endloop
  endfacet
  facet normal -1 1.2343e-16 -1.05419e-16
    outer loop
      vertex -2 -14.8546 7.5
      vertex -2 -9.56066 1.06066
      vertex -2 -9.71352 0.881678
    endloop
  endfacet
  facet normal -1 -7.649e-18 -2.07242e-16
    outer loop
      vertex -2 -14.8546 7.5
      vertex -2 -9.71352 0.881678
      vertex -2 -14.8546 -7.5
    endloop
  endfacet
  facet normal -1 -3.72944e-13 2.28542e-13
    outer loop
      vertex -2 -9.71352 0.881678
      vertex -2 -9.83651 0.680986
      vertex -2 -14.8546 -7.5
    endloop
  endfacet
  facet normal -1 -5.88949e-16 1.41395e-16
    outer loop
      vertex -2 -9.98153 0.234652
      vertex -2 -14.8546 -7.5
      vertex -2 -9.92658 0.463525
    endloop
  endfacet
  facet normal -1 -4.16558e-16 3.27829e-17
    outer loop
      vertex -2 -10 -4.44089e-16
      vertex -2 -14.8546 -7.5
      vertex -2 -9.98153 0.234652
    endloop
  endfacet
  facet normal -1 9.77193e-16 -8.69367e-16
    outer loop
      vertex -2 -9.98153 -0.234652
      vertex -2 -14.8546 -7.5
      vertex -2 -10 -4.44089e-16
    endloop
  endfacet
  facet normal -1 -2.34884e-16 -5.63912e-17
    outer loop
      vertex -2 -9.92658 -0.463525
      vertex -2 -14.8546 -7.5
      vertex -2 -9.98153 -0.234652
    endloop
  endfacet
  facet normal -1 -1.98188e-16 -8.20917e-17
    outer loop
      vertex -2 -9.83651 -0.680986
      vertex -2 -14.8546 -7.5
      vertex -2 -9.92658 -0.463525
    endloop
  endfacet
  facet normal -1 -2.15215e-16 3.51198e-16
    outer loop
      vertex -2 7.61832 1.21352
      vertex -2 -14.8546 -7.5
      vertex -2 7.81901 1.33651
    endloop
  endfacet
  facet normal -1 -2.15215e-16 3.51198e-16
    outer loop
      vertex -2 -7.61832 -1.21353
      vertex -2 14.8546 7.5
      vertex -2 -7.81901 -1.33651
    endloop
  endfacet
  facet normal -1 -5.64105e-17 -1.35431e-17
    outer loop
      vertex -2 -7.07341 0.463525
      vertex -2 14.8546 7.5
      vertex -2 -7.01847 0.234652
    endloop
  endfacet
  facet normal -1 -1.69005e-16 -1.03567e-16
    outer loop
      vertex -2 -9.83651 -0.680986
      vertex -2 -9.71352 -0.881678
      vertex -2 -14.8546 -7.5
    endloop
  endfacet
  facet normal -1 -5.93573e-17 -4.67139e-18
    outer loop
      vertex -2 -7.01847 0.234652
      vertex -2 14.8546 7.5
      vertex -2 -7 -4.44089e-16
    endloop
  endfacet
  facet normal -1 6.16691e-16 -7.13894e-16
    outer loop
      vertex -2 -9.71352 -0.881678
      vertex -2 -9.56066 -1.06066
      vertex -2 -14.8546 -7.5
    endloop
  endfacet
  facet normal -1 2.711e-16 -9.67607e-16
    outer loop
      vertex -2 -7 -4.44089e-16
      vertex -2 14.8546 7.5
      vertex -2 -7.01847 -0.234652
    endloop
  endfacet
  facet normal -1 -1.03812e-16 -1.21548e-16
    outer loop
      vertex -2 -9.56066 -1.06066
      vertex -2 -9.38168 -1.21353
      vertex -2 -14.8546 -7.5
    endloop
  endfacet
  facet normal -1 -7.76529e-17 1.8643e-17
    outer loop
      vertex -2 -7.01847 -0.234652
      vertex -2 14.8546 7.5
      vertex -2 -7.07341 -0.463525
    endloop
  endfacet
  facet normal -1 -8.46881e-17 -1.38197e-16
    outer loop
      vertex -2 -9.38168 -1.21353
      vertex -2 -9.18099 -1.33651
      vertex -2 -14.8546 -7.5
    endloop
  endfacet
  facet normal -1 -8.34331e-17 3.4559e-17
    outer loop
      vertex -2 -7.07341 -0.463525
      vertex -2 14.8546 7.5
      vertex -2 -7.16349 -0.680986
    endloop
  endfacet
  facet normal -1 -6.4819e-17 -1.56487e-16
    outer loop
      vertex -2 -9.18099 -1.33651
      vertex -2 -8.96352 -1.42659
      vertex -2 -14.8546 -7.5
    endloop
  endfacet
  facet normal -1 -9.14045e-17 5.60131e-17
    outer loop
      vertex -2 -7.16349 -0.680986
      vertex -2 14.8546 7.5
      vertex -2 -7.28647 -0.881678
    endloop
  endfacet
  facet normal -1 -4.27167e-17 -1.77926e-16
    outer loop
      vertex -2 -8.96352 -1.42659
      vertex -2 -8.73465 -1.48153
      vertex -2 -14.8546 -7.5
    endloop
  endfacet
  facet normal -1 5.90288e-16 -1.74475e-15
    outer loop
      vertex -2 -7.28647 -0.881678
      vertex -2 14.8546 7.5
      vertex -2 -7.43934 -1.06066
    endloop
  endfacet
  facet normal -1 -1.61303e-17 -2.04961e-16
    outer loop
      vertex -2 -8.73465 -1.48153
      vertex -2 -8.5 -1.5
      vertex -2 -14.8546 -7.5
    endloop
  endfacet
  facet normal -1 -1.44764e-16 1.69497e-16
    outer loop
      vertex -2 -7.43934 -1.06066
      vertex -2 14.8546 7.5
      vertex -2 -7.61832 -1.21353
    endloop
  endfacet
  facet normal -1 1.90638e-17 -2.42235e-16
    outer loop
      vertex -2 -8.5 -1.5
      vertex -2 -8.26535 -1.48153
      vertex -2 -14.8546 -7.5
    endloop
  endfacet
  facet normal -1 -1.3253e-15 3.19957e-15
    outer loop
      vertex -2 -7.81901 -1.33651
      vertex -2 14.8546 7.5
      vertex -2 -8.03647 -1.42659
    endloop
  endfacet
  facet normal -1 7.20954e-17 -3.00296e-16
    outer loop
      vertex -2 -8.26535 -1.48153
      vertex -2 -8.03647 -1.42659
      vertex -2 -14.8546 -7.5
    endloop
  endfacet
  facet normal -1 -5.36283e-17 -2.22135e-17
    outer loop
      vertex -2 -7.16349 0.680986
      vertex -2 14.8546 7.5
      vertex -2 -7.07341 0.463525
    endloop
  endfacet
  facet normal -1 -5.08561e-17 -3.11648e-17
    outer loop
      vertex -2 -7.28647 0.881678
      vertex -2 14.8546 7.5
      vertex -2 -7.16349 0.680986
    endloop
  endfacet
  facet normal -1 -4.79342e-17 -4.09397e-17
    outer loop
      vertex -2 -7.43934 1.06066
      vertex -2 14.8546 7.5
      vertex -2 -7.28647 0.881678
    endloop
  endfacet
  facet normal -1 -4.46568e-17 -5.22864e-17
    outer loop
      vertex -2 -7.61832 1.21352
      vertex -2 14.8546 7.5
      vertex -2 -7.43934 1.06066
    endloop
  endfacet
  facet normal -1 -4.0703e-17 -6.64208e-17
    outer loop
      vertex -2 -7.81901 1.33651
      vertex -2 14.8546 7.5
      vertex -2 -7.61832 1.21352
    endloop
  endfacet
  facet normal -1 -3.54764e-17 -8.56478e-17
    outer loop
      vertex -2 -8.03647 1.42658
      vertex -2 14.8546 7.5
      vertex -2 -7.81901 1.33651
    endloop
  endfacet
  facet normal -1 -2.7647e-17 -1.15157e-16
    outer loop
      vertex -2 -8.26535 1.48153
      vertex -2 14.8546 7.5
      vertex -2 -8.03647 1.42658
    endloop
  endfacet
  facet normal -1 -1.3377e-17 -1.69976e-16
    outer loop
      vertex -2 -8.5 1.5
      vertex -2 14.8546 7.5
      vertex -2 -8.26535 1.48153
    endloop
  endfacet
  facet normal -1 1.90638e-17 -2.42235e-16
    outer loop
      vertex -2 8.26535 1.48153
      vertex -2 14.8546 7.5
      vertex -2 8.5 1.5
    endloop
  endfacet
  facet normal -1 7.20954e-17 -3.00296e-16
    outer loop
      vertex -2 8.03647 1.42658
      vertex -2 14.8546 7.5
      vertex -2 8.26535 1.48153
    endloop
  endfacet
  facet normal -1 1.41247e-17 -2.35217e-16
    outer loop
      vertex -2 -14.8546 -7.5
      vertex -2 14.8546 7.5
      vertex -2 8.03647 1.42658
    endloop
  endfacet
  facet normal -1 -1.3253e-15 3.19957e-15
    outer loop
      vertex -2 -14.8546 -7.5
      vertex -2 8.03647 1.42658
      vertex -2 7.81901 1.33651
    endloop
  endfacet
  facet normal -1 -1.44764e-16 1.69497e-16
    outer loop
      vertex -2 7.43934 1.06066
      vertex -2 -14.8546 -7.5
      vertex -2 7.61832 1.21352
    endloop
  endfacet
  facet normal -1 -4.40822e-16 -7.19352e-16
    outer loop
      vertex -2 7.81901 -1.33651
      vertex -2 14.8546 -7.5
      vertex -2 7.61832 -1.21353
    endloop
  endfacet
  facet normal -1 -1.18562e-16 1.01262e-16
    outer loop
      vertex -2 -14.8546 -7.5
      vertex -2 7.43934 1.06066
      vertex -2 7.28647 0.881678
    endloop
  endfacet
  facet normal -1 -1.04462e-16 6.4015e-17
    outer loop
      vertex -2 -14.8546 -7.5
      vertex -2 7.28647 0.881678
      vertex -2 7.16349 0.680986
    endloop
  endfacet
  facet normal -1 -9.53521e-17 3.9496e-17
    outer loop
      vertex -2 -14.8546 -7.5
      vertex -2 7.16349 0.680986
      vertex -2 7.07341 0.463525
    endloop
  endfacet
  facet normal -1 -8.87462e-17 2.13063e-17
    outer loop
      vertex -2 -14.8546 -7.5
      vertex -2 7.07341 0.463525
      vertex -2 7.01847 0.234652
    endloop
  endfacet
  facet normal -1 -8.35368e-17 6.5743e-18
    outer loop
      vertex -2 -14.8546 -7.5
      vertex -2 7.01847 0.234652
      vertex -2 7 -4.44089e-16
    endloop
  endfacet
  facet normal -1 2.37056e-16 -9.27616e-16
    outer loop
      vertex -2 -14.8546 -7.5
      vertex -2 7 -4.44089e-16
      vertex -2 7.01847 -0.234652
    endloop
  endfacet
  facet normal -1 -6.58123e-17 -1.58003e-17
    outer loop
      vertex -2 -14.8546 -7.5
      vertex -2 7.01847 -0.234652
      vertex -2 7.07341 -0.463525
    endloop
  endfacet
  facet normal -1 -6.25663e-17 -2.59157e-17
    outer loop
      vertex -2 -14.8546 -7.5
      vertex -2 7.07341 -0.463525
      vertex -2 7.16349 -0.680986
    endloop
  endfacet
  facet normal -1 -5.93321e-17 -3.6359e-17
    outer loop
      vertex -2 -14.8546 -7.5
      vertex -2 7.16349 -0.680986
      vertex -2 7.28647 -0.881678
    endloop
  endfacet
  facet normal -1 2.39492e-16 -1.03605e-15
    outer loop
      vertex -2 -14.8546 -7.5
      vertex -2 7.28647 -0.881678
      vertex -2 7.43934 -1.06066
    endloop
  endfacet
  facet normal -1 -0 -2.06895e-16
    outer loop
      vertex -2 -14.8546 -7.5
      vertex -2 7.43934 -1.06066
      vertex -2 14.8546 -7.5
    endloop
  endfacet
  facet normal -1 -1.07249e-14 -1.25572e-14
    outer loop
      vertex -2 7.43934 -1.06066
      vertex -2 7.61832 -1.21353
      vertex -2 14.8546 -7.5
    endloop
  endfacet
  facet normal -1 -1.69836e-16 -4.10022e-16
    outer loop
      vertex -2 8.03647 -1.42659
      vertex -2 14.8546 -7.5
      vertex -2 7.81901 -1.33651
    endloop
  endfacet
  facet normal -1 -7.20954e-17 -3.00296e-16
    outer loop
      vertex -2 8.26535 -1.48153
      vertex -2 14.8546 -7.5
      vertex -2 8.03647 -1.42659
    endloop
  endfacet
  facet normal -1 -1.90638e-17 -2.42235e-16
    outer loop
      vertex -2 8.5 -1.5
      vertex -2 14.8546 -7.5
      vertex -2 8.26535 -1.48153
    endloop
  endfacet
  facet normal -1 1.61303e-17 -2.04961e-16
    outer loop
      vertex -2 8.73465 -1.48153
      vertex -2 14.8546 -7.5
      vertex -2 8.5 -1.5
    endloop
  endfacet
  facet normal -1 4.27167e-17 -1.77926e-16
    outer loop
      vertex -2 8.96352 -1.42659
      vertex -2 14.8546 -7.5
      vertex -2 8.73465 -1.48153
    endloop
  endfacet
  facet normal -1 6.4819e-17 -1.56487e-16
    outer loop
      vertex -2 9.18099 -1.33651
      vertex -2 14.8546 -7.5
      vertex -2 8.96352 -1.42659
    endloop
  endfacet
  facet normal -1 8.46881e-17 -1.38197e-16
    outer loop
      vertex -2 9.38168 -1.21353
      vertex -2 14.8546 -7.5
      vertex -2 9.18099 -1.33651
    endloop
  endfacet
  facet normal -1 1.03812e-16 -1.21548e-16
    outer loop
      vertex -2 9.56066 -1.06066
      vertex -2 14.8546 -7.5
      vertex -2 9.38168 -1.21353
    endloop
  endfacet
  facet normal -1 1.98188e-16 -8.20917e-17
    outer loop
      vertex -2 9.92658 -0.463525
      vertex -2 14.8546 -7.5
      vertex -2 9.83651 -0.680986
    endloop
  endfacet
  facet normal -1 -6.16691e-16 -7.13894e-16
    outer loop
      vertex -2 9.56066 -1.06066
      vertex -2 9.71352 -0.881678
      vertex -2 14.8546 -7.5
    endloop
  endfacet
  facet normal -1 1.69005e-16 -1.03567e-16
    outer loop
      vertex -2 9.71352 -0.881678
      vertex -2 9.83651 -0.680986
      vertex -2 14.8546 -7.5
    endloop
  endfacet
  facet normal -1 -5.15331e-16 1.23721e-16
    outer loop
      vertex -2 9.98153 -0.234652
      vertex -2 14.8546 7.5
      vertex -2 9.92658 -0.463525
    endloop
  endfacet
  facet normal -1 1.35185e-15 -1.05266e-15
    outer loop
      vertex -2 10 -4.44089e-16
      vertex -2 14.8546 7.5
      vertex -2 9.98153 -0.234652
    endloop
  endfacet
  facet normal -1 -2.44683e-16 -1.92565e-17
    outer loop
      vertex -2 9.98153 0.234652
      vertex -2 14.8546 7.5
      vertex -2 10 -4.44089e-16
    endloop
  endfacet
  facet normal -1 -2.01329e-16 -4.83353e-17
    outer loop
      vertex -2 9.92658 0.463525
      vertex -2 14.8546 7.5
      vertex -2 9.98153 0.234652
    endloop
  endfacet
  facet normal -1 -1.69875e-16 -7.03644e-17
    outer loop
      vertex -2 9.83651 0.680986
      vertex -2 14.8546 7.5
      vertex -2 9.92658 0.463525
    endloop
  endfacet
  facet normal -1 -1.44862e-16 -8.87718e-17
    outer loop
      vertex -2 9.71352 0.881678
      vertex -2 14.8546 7.5
      vertex -2 9.83651 0.680986
    endloop
  endfacet
  facet normal -1 -1.2343e-16 -1.05419e-16
    outer loop
      vertex -2 9.56066 1.06066
      vertex -2 14.8546 7.5
      vertex -2 9.71352 0.881678
    endloop
  endfacet
  facet normal -1 -1.03812e-16 -1.21548e-16
    outer loop
      vertex -2 9.38168 1.21352
      vertex -2 14.8546 7.5
      vertex -2 9.56066 1.06066
    endloop
  endfacet
  facet normal -1 -8.46881e-17 -1.38197e-16
    outer loop
      vertex -2 9.18099 1.33651
      vertex -2 14.8546 7.5
      vertex -2 9.38168 1.21352
    endloop
  endfacet
  facet normal -1 -6.4819e-17 -1.56487e-16
    outer loop
      vertex -2 8.96352 1.42658
      vertex -2 14.8546 7.5
      vertex -2 9.18099 1.33651
    endloop
  endfacet
  facet normal -1 -4.27167e-17 -1.77926e-16
    outer loop
      vertex -2 8.73465 1.48153
      vertex -2 14.8546 7.5
      vertex -2 8.96352 1.42658
    endloop
  endfacet
  facet normal -1 -1.61303e-17 -2.04961e-16
    outer loop
      vertex -2 8.5 1.5
      vertex -2 14.8546 7.5
      vertex -2 8.73465 1.48153
    endloop
  endfacet
  facet normal -1 -1.09016e-15 4.51558e-16
    outer loop
      vertex -2 -9.92658 0.463525
      vertex -2 -14.8546 -7.5
      vertex -2 -9.83651 0.680986
    endloop
  endfacet
  facet normal 0.363818 -0.93147 1.03414e-16
    outer loop
      vertex -2 14.8546 7.5
      vertex -32 3.13706 7.5
      vertex -32 3.13706 -7.5
    endloop
  endfacet
  facet normal 0.363818 -0.93147 7.53983e-17
    outer loop
      vertex -2 14.8546 -7.5
      vertex -2 14.8546 7.5
      vertex -32 3.13706 -7.5
    endloop
  endfacet
  facet normal 1 -0 2.36848e-16
    outer loop
      vertex -32 3.13706 7.5
      vertex -32 -3.13706 7.5
      vertex -32 -3.13706 -7.5
    endloop
  endfacet
  facet normal 1 -0 2.36848e-16
    outer loop
      vertex -32 3.13706 -7.5
      vertex -32 3.13706 7.5
      vertex -32 -3.13706 -7.5
    endloop
  endfacet
  facet normal 2.04899e-16 -8.00307e-17 -1
    outer loop
      vertex -2 -17.0018 -7.5
      vertex -32.0876 -5.25 -7.5
      vertex -1.99931 -17 -7.5
    endloop
  endfacet
  facet normal 1.80802e-16 0 -1
    outer loop
      vertex -37 5.25 -7.5
      vertex -32.0876 -5.25 -7.5
      vertex -37 -5.25 -7.5
    endloop
  endfacet
  facet normal 1.66089e-16 -6.88364e-18 -1
    outer loop
      vertex -32 -3.13706 -7.5
      vertex -32.0876 -5.25 -7.5
      vertex -37 5.25 -7.5
    endloop
  endfacet
  facet normal 1.80802e-16 7.49345e-18 -1
    outer loop
      vertex -32 3.13706 -7.5
      vertex -37 5.25 -7.5
      vertex -32.0876 5.25 -7.5
    endloop
  endfacet
  facet normal 0 0 -1
    outer loop
      vertex -1.99931 -17 -7.5
      vertex -2 17.0018 -7.5
      vertex -1.99931 17 -7.5
    endloop
  endfacet
  facet normal 0 -0 -1
    outer loop
      vertex -1.99931 -17 -7.5
      vertex -1.99931 17 -7.5
      vertex 1.66533e-15 17 -7.5
    endloop
  endfacet
  facet normal -0 0 -1
    outer loop
      vertex -1.99931 -17 -7.5
      vertex 1.66533e-15 17 -7.5
      vertex 1.66533e-15 -17 -7.5
    endloop
  endfacet
  facet normal 2.32392e-16 -9.63159e-18 -1
    outer loop
      vertex -1.99931 -17 -7.5
      vertex -32.0876 -5.25 -7.5
      vertex -32 -3.13706 -7.5
    endloop
  endfacet
  facet normal 2.36877e-16 7.60249e-20 -1
    outer loop
      vertex -2 -14.8546 -7.5
      vertex -1.99931 -17 -7.5
      vertex -32 -3.13706 -7.5
    endloop
  endfacet
  facet normal 2.32396e-16 9.63178e-18 -1
    outer loop
      vertex -32 3.13706 -7.5
      vertex -32.0876 5.25 -7.5
      vertex -2 17.0018 -7.5
    endloop
  endfacet
  facet normal 0 0 -1
    outer loop
      vertex -1.99931 -17 -7.5
      vertex -2 -14.8546 -7.5
      vertex -2 14.8546 -7.5
    endloop
  endfacet
  facet normal 0 0 -1
    outer loop
      vertex -1.99931 -17 -7.5
      vertex -2 14.8546 -7.5
      vertex -2 17.0018 -7.5
    endloop
  endfacet
  facet normal 2.36848e-16 3.29121e-23 -1
    outer loop
      vertex -32 3.13706 -7.5
      vertex -2 17.0018 -7.5
      vertex -2 14.8546 -7.5
    endloop
  endfacet
  facet normal 1.77636e-16 0 -1
    outer loop
      vertex -32 -3.13706 -7.5
      vertex -37 5.25 -7.5
      vertex -32 3.13706 -7.5
    endloop
  endfacet
  facet normal 1.77088e-16 -0.0784588 -0.996917
    outer loop
      vertex -37 -6.42326 -7.40766
      vertex -37 -5.25 -7.5
      vertex -32 -6.42326 -7.40766
    endloop
  endfacet
  facet normal 1.80033e-16 -0.0784588 -0.996917
    outer loop
      vertex -32 -6.42326 -7.40766
      vertex -37 -5.25 -7.5
      vertex -32.0876 -5.25 -7.5
    endloop
  endfacet
  facet normal 4.77307e-15 -0.0784588 -0.996917
    outer loop
      vertex -32 -6.42326 -7.40766
      vertex -32.0876 -5.25 -7.5
      vertex -32 -5.2842 -7.49731
    endloop
  endfacet
  facet normal 1 -1.86469e-17 2.36933e-16
    outer loop
      vertex -32 -5.2842 -7.49731
      vertex -32 -5.2842 7.49731
      vertex -32 -6.42326 7.40766
    endloop
  endfacet
  facet normal 1 -9.44772e-17 2.28088e-16
    outer loop
      vertex -32 -8.65493 6.68255
      vertex -32 -5.2842 -7.49731
      vertex -32 -7.56763 7.13292
    endloop
  endfacet
  facet normal 1 -5.61937e-17 2.34063e-16
    outer loop
      vertex -32 -7.56763 7.13292
      vertex -32 -5.2842 -7.49731
      vertex -32 -6.42326 7.40766
    endloop
  endfacet
  facet normal 1 -1.34014e-16 2.1869e-16
    outer loop
      vertex -32 -9.65839 6.06763
      vertex -32 -5.2842 -7.49731
      vertex -32 -8.65493 6.68255
    endloop
  endfacet
  facet normal 1 -1.75385e-16 2.05349e-16
    outer loop
      vertex -32 -10.5533 5.3033
      vertex -32 -5.2842 -7.49731
      vertex -32 -9.65839 6.06763
    endloop
  endfacet
  facet normal 1 -2.19278e-16 1.87281e-16
    outer loop
      vertex -32 -11.3176 4.40839
      vertex -32 -5.2842 -7.49731
      vertex -32 -10.5533 5.3033
    endloop
  endfacet
  facet normal 1 -2.66535e-16 1.63333e-16
    outer loop
      vertex -32 -11.9325 3.40493
      vertex -32 -5.2842 -7.49731
      vertex -32 -11.3176 4.40839
    endloop
  endfacet
  facet normal 1 -3.18224e-16 1.31813e-16
    outer loop
      vertex -32 -12.3829 2.31763
      vertex -32 -5.2842 -7.49731
      vertex -32 -11.9325 3.40493
    endloop
  endfacet
  facet normal 1 -3.75747e-16 9.02089e-17
    outer loop
      vertex -32 -12.6577 1.17326
      vertex -32 -5.2842 -7.49731
      vertex -32 -12.3829 2.31763
    endloop
  endfacet
  facet normal 1 -4.41011e-16 3.47081e-17
    outer loop
      vertex -32 -12.75 -7.10543e-15
      vertex -32 -5.2842 -7.49731
      vertex -32 -12.6577 1.17326
    endloop
  endfacet
  facet normal 1 2.78511e-15 3.24727e-15
    outer loop
      vertex -32 -12.6577 -1.17326
      vertex -32 -5.2842 -7.49731
      vertex -32 -12.75 -7.10543e-15
    endloop
  endfacet
  facet normal 1 0 0
    outer loop
      vertex -32 -12.3829 -2.31763
      vertex -32 -5.2842 -7.49731
      vertex -32 -12.6577 -1.17326
    endloop
  endfacet
  facet normal 1 0 0
    outer loop
      vertex -32 -11.9325 -3.40493
      vertex -32 -5.2842 -7.49731
      vertex -32 -12.3829 -2.31763
    endloop
  endfacet
  facet normal 1 0 0
    outer loop
      vertex -32 -11.3176 -4.40839
      vertex -32 -5.2842 -7.49731
      vertex -32 -11.9325 -3.40493
    endloop
  endfacet
  facet normal 1 0 0
    outer loop
      vertex -32 -10.5533 -5.3033
      vertex -32 -5.2842 -7.49731
      vertex -32 -11.3176 -4.40839
    endloop
  endfacet
  facet normal 1 0 0
    outer loop
      vertex -32 -9.65839 -6.06763
      vertex -32 -5.2842 -7.49731
      vertex -32 -10.5533 -5.3033
    endloop
  endfacet
  facet normal 1 0 0
    outer loop
      vertex -32 -8.65493 -6.68255
      vertex -32 -5.2842 -7.49731
      vertex -32 -9.65839 -6.06763
    endloop
  endfacet
  facet normal 1 0 0
    outer loop
      vertex -32 -7.56763 -7.13292
      vertex -32 -5.2842 -7.49731
      vertex -32 -8.65493 -6.68255
    endloop
  endfacet
  facet normal 1 0 0
    outer loop
      vertex -32 -6.42326 -7.40766
      vertex -32 -5.2842 -7.49731
      vertex -32 -7.56763 -7.13292
    endloop
  endfacet
  facet normal -3.45455e-16 -0.233446 0.97237
    outer loop
      vertex -32 -6.42326 7.40766
      vertex -37 -6.42326 7.40766
      vertex -37 -7.56763 7.13292
    endloop
  endfacet
  facet normal -3.45455e-16 -0.233446 0.97237
    outer loop
      vertex -32 -7.56763 7.13292
      vertex -32 -6.42326 7.40766
      vertex -37 -7.56763 7.13292
    endloop
  endfacet
  facet normal -3.28228e-16 -0.382683 0.92388
    outer loop
      vertex -32 -7.56763 7.13292
      vertex -37 -7.56763 7.13292
      vertex -37 -8.65493 6.68255
    endloop
  endfacet
  facet normal -3.28228e-16 -0.382683 0.92388
    outer loop
      vertex -32 -8.65493 6.68255
      vertex -32 -7.56763 7.13292
      vertex -37 -8.65493 6.68255
    endloop
  endfacet
  facet normal -3.02919e-16 -0.522499 0.85264
    outer loop
      vertex -32 -8.65493 6.68255
      vertex -37 -8.65493 6.68255
      vertex -37 -9.65839 6.06763
    endloop
  endfacet
  facet normal -3.02919e-16 -0.522499 0.85264
    outer loop
      vertex -32 -9.65839 6.06763
      vertex -32 -8.65493 6.68255
      vertex -37 -9.65839 6.06763
    endloop
  endfacet
  facet normal -2.70151e-16 -0.649448 0.760406
    outer loop
      vertex -32 -9.65839 6.06763
      vertex -37 -9.65839 6.06763
      vertex -37 -10.5533 5.3033
    endloop
  endfacet
  facet normal -2.70151e-16 -0.649448 0.760406
    outer loop
      vertex -32 -10.5533 5.3033
      vertex -32 -9.65839 6.06763
      vertex -37 -10.5533 5.3033
    endloop
  endfacet
  facet normal -2.3073e-16 -0.760406 0.649448
    outer loop
      vertex -32 -10.5533 5.3033
      vertex -37 -10.5533 5.3033
      vertex -37 -11.3176 4.40839
    endloop
  endfacet
  facet normal -2.3073e-16 -0.760406 0.649448
    outer loop
      vertex -32 -11.3176 4.40839
      vertex -32 -10.5533 5.3033
      vertex -37 -11.3176 4.40839
    endloop
  endfacet
  facet normal -1.85629e-16 -0.85264 0.522499
    outer loop
      vertex -32 -11.3176 4.40839
      vertex -37 -11.3176 4.40839
      vertex -37 -11.9325 3.40493
    endloop
  endfacet
  facet normal -1.39222e-16 -0.85264 0.522499
    outer loop
      vertex -32 -11.9325 3.40493
      vertex -32 -11.3176 4.40839
      vertex -37 -11.9325 3.40493
    endloop
  endfacet
  facet normal -1.01967e-16 -0.92388 0.382683
    outer loop
      vertex -32 -11.9325 3.40493
      vertex -37 -11.9325 3.40493
      vertex -37 -12.3829 2.31763
    endloop
  endfacet
  facet normal -1.01967e-16 -0.92388 0.382683
    outer loop
      vertex -32 -12.3829 2.31763
      vertex -32 -11.9325 3.40493
      vertex -37 -12.3829 2.31763
    endloop
  endfacet
  facet normal -6.22024e-17 -0.97237 0.233446
    outer loop
      vertex -32 -12.3829 2.31763
      vertex -37 -12.3829 2.31763
      vertex -37 -12.6577 1.17326
    endloop
  endfacet
  facet normal -5.18353e-17 -0.97237 0.233446
    outer loop
      vertex -32 -12.6577 1.17326
      vertex -32 -12.3829 2.31763
      vertex -37 -12.6577 1.17326
    endloop
  endfacet
  facet normal -1.74213e-17 -0.996917 0.0784588
    outer loop
      vertex -32 -12.6577 1.17326
      vertex -37 -12.6577 1.17326
      vertex -37 -12.75 -8.21565e-15
    endloop
  endfacet
  facet normal -1.74213e-17 -0.996917 0.0784588
    outer loop
      vertex -32 -12.75 -7.10543e-15
      vertex -32 -12.6577 1.17326
      vertex -37 -12.75 -8.21565e-15
    endloop
  endfacet
  facet normal 1.74213e-17 -0.996917 -0.0784588
    outer loop
      vertex -32 -12.75 -7.10543e-15
      vertex -37 -12.75 -8.21565e-15
      vertex -37 -12.6577 -1.17326
    endloop
  endfacet
  facet normal 1.74213e-17 -0.996917 -0.0784588
    outer loop
      vertex -32 -12.6577 -1.17326
      vertex -32 -12.75 -7.10543e-15
      vertex -37 -12.6577 -1.17326
    endloop
  endfacet
  facet normal 5.18353e-17 -0.97237 -0.233446
    outer loop
      vertex -32 -12.6577 -1.17326
      vertex -37 -12.6577 -1.17326
      vertex -37 -12.3829 -2.31763
    endloop
  endfacet
  facet normal 4.14683e-17 -0.97237 -0.233446
    outer loop
      vertex -32 -12.3829 -2.31763
      vertex -32 -12.6577 -1.17326
      vertex -37 -12.3829 -2.31763
    endloop
  endfacet
  facet normal 6.79782e-17 -0.92388 -0.382683
    outer loop
      vertex -32 -12.3829 -2.31763
      vertex -37 -12.3829 -2.31763
      vertex -37 -11.9325 -3.40493
    endloop
  endfacet
  facet normal 6.79782e-17 -0.92388 -0.382683
    outer loop
      vertex -32 -11.9325 -3.40493
      vertex -32 -12.3829 -2.31763
      vertex -37 -11.9325 -3.40493
    endloop
  endfacet
  facet normal 9.28145e-17 -0.85264 -0.522499
    outer loop
      vertex -32 -11.9325 -3.40493
      vertex -37 -11.9325 -3.40493
      vertex -37 -11.3176 -4.40839
    endloop
  endfacet
  facet normal 9.28145e-17 -0.85264 -0.522499
    outer loop
      vertex -32 -11.3176 -4.40839
      vertex -32 -11.9325 -3.40493
      vertex -37 -11.3176 -4.40839
    endloop
  endfacet
  facet normal 1.15365e-16 -0.760406 -0.649448
    outer loop
      vertex -32 -11.3176 -4.40839
      vertex -37 -11.3176 -4.40839
      vertex -37 -10.5533 -5.3033
    endloop
  endfacet
  facet normal 1.15365e-16 -0.760406 -0.649448
    outer loop
      vertex -32 -10.5533 -5.3033
      vertex -32 -11.3176 -4.40839
      vertex -37 -10.5533 -5.3033
    endloop
  endfacet
  facet normal 1.35075e-16 -0.649448 -0.760406
    outer loop
      vertex -37 -10.5533 -5.3033
      vertex -37 -9.65839 -6.06763
      vertex -32 -10.5533 -5.3033
    endloop
  endfacet
  facet normal 1.47399e-16 -0.649448 -0.760406
    outer loop
      vertex -32 -10.5533 -5.3033
      vertex -37 -9.65839 -6.06763
      vertex -32 -9.65839 -6.06763
    endloop
  endfacet
  facet normal 1.51459e-16 -0.522499 -0.85264
    outer loop
      vertex -37 -9.65839 -6.06763
      vertex -37 -8.65493 -6.68255
      vertex -32 -9.65839 -6.06763
    endloop
  endfacet
  facet normal 1.47399e-16 -0.522499 -0.85264
    outer loop
      vertex -32 -9.65839 -6.06763
      vertex -37 -8.65493 -6.68255
      vertex -32 -8.65493 -6.68255
    endloop
  endfacet
  facet normal 1.64114e-16 -0.382683 -0.92388
    outer loop
      vertex -37 -8.65493 -6.68255
      vertex -37 -7.56763 -7.13292
      vertex -32 -8.65493 -6.68255
    endloop
  endfacet
  facet normal 1.76879e-16 -0.382683 -0.92388
    outer loop
      vertex -32 -8.65493 -6.68255
      vertex -37 -7.56763 -7.13292
      vertex -32 -7.56763 -7.13292
    endloop
  endfacet
  facet normal 1.72728e-16 -0.233446 -0.97237
    outer loop
      vertex -37 -7.56763 -7.13292
      vertex -37 -6.42326 -7.40766
      vertex -32 -7.56763 -7.13292
    endloop
  endfacet
  facet normal 1.69509e-16 -0.233446 -0.97237
    outer loop
      vertex -32 -7.56763 -7.13292
      vertex -37 -6.42326 -7.40766
      vertex -32 -6.42326 -7.40766
    endloop
  endfacet
  facet normal 1.77088e-16 0.0784588 -0.996917
    outer loop
      vertex -37 6.42326 -7.40766
      vertex -32 6.42326 -7.40766
      vertex -37 5.25 -7.5
    endloop
  endfacet
  facet normal 2.60595e-16 0.0784588 -0.996917
    outer loop
      vertex -37 5.25 -7.5
      vertex -32 6.42326 -7.40766
      vertex -32 5.2842 -7.49731
    endloop
  endfacet
  facet normal 1.80245e-16 0.0784588 -0.996917
    outer loop
      vertex -37 5.25 -7.5
      vertex -32 5.2842 -7.49731
      vertex -32.0876 5.25 -7.5
    endloop
  endfacet
  facet normal 1.72728e-16 0.233446 -0.97237
    outer loop
      vertex -37 7.56763 -7.13292
      vertex -32 7.56763 -7.13292
      vertex -37 6.42326 -7.40766
    endloop
  endfacet
  facet normal 1.72728e-16 0.233446 -0.97237
    outer loop
      vertex -37 6.42326 -7.40766
      vertex -32 7.56763 -7.13292
      vertex -32 6.42326 -7.40766
    endloop
  endfacet
  facet normal 1.64114e-16 0.382683 -0.92388
    outer loop
      vertex -37 8.65493 -6.68255
      vertex -32 8.65493 -6.68255
      vertex -37 7.56763 -7.13292
    endloop
  endfacet
  facet normal 1.64114e-16 0.382683 -0.92388
    outer loop
      vertex -37 7.56763 -7.13292
      vertex -32 8.65493 -6.68255
      vertex -32 7.56763 -7.13292
    endloop
  endfacet
  facet normal 1.51459e-16 0.522499 -0.85264
    outer loop
      vertex -37 9.65839 -6.06763
      vertex -32 9.65839 -6.06763
      vertex -37 8.65493 -6.68255
    endloop
  endfacet
  facet normal 1.51459e-16 0.522499 -0.85264
    outer loop
      vertex -37 8.65493 -6.68255
      vertex -32 9.65839 -6.06763
      vertex -32 8.65493 -6.68255
    endloop
  endfacet
  facet normal 1.35075e-16 0.649448 -0.760406
    outer loop
      vertex -37 10.5533 -5.3033
      vertex -32 10.5533 -5.3033
      vertex -37 9.65839 -6.06763
    endloop
  endfacet
  facet normal 1.35075e-16 0.649448 -0.760406
    outer loop
      vertex -37 9.65839 -6.06763
      vertex -32 10.5533 -5.3033
      vertex -32 9.65839 -6.06763
    endloop
  endfacet
  facet normal 1.15365e-16 0.760406 -0.649448
    outer loop
      vertex -37 11.3176 -4.40839
      vertex -32 11.3176 -4.40839
      vertex -37 10.5533 -5.3033
    endloop
  endfacet
  facet normal 1.15365e-16 0.760406 -0.649448
    outer loop
      vertex -37 10.5533 -5.3033
      vertex -32 11.3176 -4.40839
      vertex -32 10.5533 -5.3033
    endloop
  endfacet
  facet normal 9.28145e-17 0.85264 -0.522499
    outer loop
      vertex -37 11.9325 -3.40493
      vertex -32 11.9325 -3.40493
      vertex -37 11.3176 -4.40839
    endloop
  endfacet
  facet normal 9.28145e-17 0.85264 -0.522499
    outer loop
      vertex -37 11.3176 -4.40839
      vertex -32 11.9325 -3.40493
      vertex -32 11.3176 -4.40839
    endloop
  endfacet
  facet normal 6.79782e-17 0.92388 -0.382683
    outer loop
      vertex -37 12.3829 -2.31763
      vertex -32 12.3829 -2.31763
      vertex -37 11.9325 -3.40493
    endloop
  endfacet
  facet normal 6.79782e-17 0.92388 -0.382683
    outer loop
      vertex -37 11.9325 -3.40493
      vertex -32 12.3829 -2.31763
      vertex -32 11.9325 -3.40493
    endloop
  endfacet
  facet normal 5.18353e-17 0.97237 -0.233446
    outer loop
      vertex -37 12.6577 -1.17326
      vertex -32 12.6577 -1.17326
      vertex -37 12.3829 -2.31763
    endloop
  endfacet
  facet normal 4.14683e-17 0.97237 -0.233446
    outer loop
      vertex -37 12.3829 -2.31763
      vertex -32 12.6577 -1.17326
      vertex -32 12.3829 -2.31763
    endloop
  endfacet
  facet normal 1.74213e-17 0.996917 -0.0784588
    outer loop
      vertex -37 12.75 -8.21565e-15
      vertex -32 12.75 -7.10543e-15
      vertex -37 12.6577 -1.17326
    endloop
  endfacet
  facet normal 1.74213e-17 0.996917 -0.0784588
    outer loop
      vertex -37 12.6577 -1.17326
      vertex -32 12.75 -7.10543e-15
      vertex -32 12.6577 -1.17326
    endloop
  endfacet
  facet normal -1.74213e-17 0.996917 0.0784588
    outer loop
      vertex -37 12.6577 1.17326
      vertex -32 12.6577 1.17326
      vertex -37 12.75 -8.21565e-15
    endloop
  endfacet
  facet normal -1.74213e-17 0.996917 0.0784588
    outer loop
      vertex -37 12.75 -8.21565e-15
      vertex -32 12.6577 1.17326
      vertex -32 12.75 -7.10543e-15
    endloop
  endfacet
  facet normal -6.22024e-17 0.97237 0.233446
    outer loop
      vertex -37 12.3829 2.31763
      vertex -32 12.3829 2.31763
      vertex -37 12.6577 1.17326
    endloop
  endfacet
  facet normal -5.18353e-17 0.97237 0.233446
    outer loop
      vertex -37 12.6577 1.17326
      vertex -32 12.3829 2.31763
      vertex -32 12.6577 1.17326
    endloop
  endfacet
  facet normal -1.01967e-16 0.92388 0.382683
    outer loop
      vertex -37 11.9325 3.40493
      vertex -32 11.9325 3.40493
      vertex -37 12.3829 2.31763
    endloop
  endfacet
  facet normal -1.01967e-16 0.92388 0.382683
    outer loop
      vertex -37 12.3829 2.31763
      vertex -32 11.9325 3.40493
      vertex -32 12.3829 2.31763
    endloop
  endfacet
  facet normal -1.85629e-16 0.85264 0.522499
    outer loop
      vertex -37 11.3176 4.40839
      vertex -32 11.3176 4.40839
      vertex -37 11.9325 3.40493
    endloop
  endfacet
  facet normal -1.39222e-16 0.85264 0.522499
    outer loop
      vertex -37 11.9325 3.40493
      vertex -32 11.3176 4.40839
      vertex -32 11.9325 3.40493
    endloop
  endfacet
  facet normal -2.3073e-16 0.760406 0.649448
    outer loop
      vertex -37 10.5533 5.3033
      vertex -32 10.5533 5.3033
      vertex -37 11.3176 4.40839
    endloop
  endfacet
  facet normal -2.3073e-16 0.760406 0.649448
    outer loop
      vertex -37 11.3176 4.40839
      vertex -32 10.5533 5.3033
      vertex -32 11.3176 4.40839
    endloop
  endfacet
  facet normal -2.65319e-16 0.649448 0.760406
    outer loop
      vertex -37 10.5533 5.3033
      vertex -37 9.65839 6.06763
      vertex -32 9.65839 6.06763
    endloop
  endfacet
  facet normal -2.70151e-16 0.649448 0.760406
    outer loop
      vertex -32 10.5533 5.3033
      vertex -37 10.5533 5.3033
      vertex -32 9.65839 6.06763
    endloop
  endfacet
  facet normal -3.09539e-16 0.522499 0.85264
    outer loop
      vertex -37 9.65839 6.06763
      vertex -37 8.65493 6.68255
      vertex -32 8.65493 6.68255
    endloop
  endfacet
  facet normal -3.02919e-16 0.522499 0.85264
    outer loop
      vertex -32 9.65839 6.06763
      vertex -37 9.65839 6.06763
      vertex -32 8.65493 6.68255
    endloop
  endfacet
  facet normal -3.24278e-16 0.382683 0.92388
    outer loop
      vertex -37 8.65493 6.68255
      vertex -37 7.56763 7.13292
      vertex -32 7.56763 7.13292
    endloop
  endfacet
  facet normal -3.28228e-16 0.382683 0.92388
    outer loop
      vertex -32 8.65493 6.68255
      vertex -37 8.65493 6.68255
      vertex -32 7.56763 7.13292
    endloop
  endfacet
  facet normal -3.46389e-16 0.233446 0.97237
    outer loop
      vertex -37 7.56763 7.13292
      vertex -37 6.42326 7.40766
      vertex -32 6.42326 7.40766
    endloop
  endfacet
  facet normal -3.45455e-16 0.233446 0.97237
    outer loop
      vertex -32 7.56763 7.13292
      vertex -37 7.56763 7.13292
      vertex -32 6.42326 7.40766
    endloop
  endfacet
  facet normal 1 1.86469e-17 2.36933e-16
    outer loop
      vertex -32 6.42326 7.40766
      vertex -32 5.2842 7.49731
      vertex -32 5.2842 -7.49731
    endloop
  endfacet
  facet normal 1 -5.75709e-17 2.398e-16
    outer loop
      vertex -32 7.56763 -7.13292
      vertex -32 6.42326 7.40766
      vertex -32 6.42326 -7.40766
    endloop
  endfacet
  facet normal 1 -1.88726e-17 2.398e-16
    outer loop
      vertex -32 6.42326 -7.40766
      vertex -32 6.42326 7.40766
      vertex -32 5.2842 -7.49731
    endloop
  endfacet
  facet normal 1 -9.801e-17 2.36617e-16
    outer loop
      vertex -32 8.65493 -6.68255
      vertex -32 6.42326 7.40766
      vertex -32 7.56763 -7.13292
    endloop
  endfacet
  facet normal 1 -1.40842e-16 2.29833e-16
    outer loop
      vertex -32 9.65839 -6.06763
      vertex -32 6.42326 7.40766
      vertex -32 8.65493 -6.68255
    endloop
  endfacet
  facet normal 1 -1.8686e-16 2.18785e-16
    outer loop
      vertex -32 10.5533 -5.3033
      vertex -32 6.42326 7.40766
      vertex -32 9.65839 -6.06763
    endloop
  endfacet
  facet normal 1 -2.37065e-16 2.02473e-16
    outer loop
      vertex -32 11.3176 -4.40839
      vertex -32 6.42326 7.40766
      vertex -32 10.5533 -5.3033
    endloop
  endfacet
  facet normal 1 -2.92759e-16 1.79403e-16
    outer loop
      vertex -32 11.9325 -3.40493
      vertex -32 6.42326 7.40766
      vertex -32 11.3176 -4.40839
    endloop
  endfacet
  facet normal 1 -3.55698e-16 1.47335e-16
    outer loop
      vertex -32 12.3829 -2.31763
      vertex -32 6.42326 7.40766
      vertex -32 11.9325 -3.40493
    endloop
  endfacet
  facet normal 1 -4.28321e-16 1.02831e-16
    outer loop
      vertex -32 12.6577 -1.17326
      vertex -32 6.42326 7.40766
      vertex -32 12.3829 -2.31763
    endloop
  endfacet
  facet normal 1 3.24628e-15 2.77259e-15
    outer loop
      vertex -32 12.75 -7.10543e-15
      vertex -32 6.42326 7.40766
      vertex -32 12.6577 -1.17326
    endloop
  endfacet
  facet normal 1 -0 -0
    outer loop
      vertex -32 12.6577 1.17326
      vertex -32 6.42326 7.40766
      vertex -32 12.75 -7.10543e-15
    endloop
  endfacet
  facet normal 1 -0 -0
    outer loop
      vertex -32 12.3829 2.31763
      vertex -32 6.42326 7.40766
      vertex -32 12.6577 1.17326
    endloop
  endfacet
  facet normal 1 -0 -0
    outer loop
      vertex -32 11.9325 3.40493
      vertex -32 6.42326 7.40766
      vertex -32 12.3829 2.31763
    endloop
  endfacet
  facet normal 1 -0 -0
    outer loop
      vertex -32 11.3176 4.40839
      vertex -32 6.42326 7.40766
      vertex -32 11.9325 3.40493
    endloop
  endfacet
  facet normal 1 -0 -0
    outer loop
      vertex -32 10.5533 5.3033
      vertex -32 6.42326 7.40766
      vertex -32 11.3176 4.40839
    endloop
  endfacet
  facet normal 1 -0 -0
    outer loop
      vertex -32 9.65839 6.06763
      vertex -32 6.42326 7.40766
      vertex -32 10.5533 5.3033
    endloop
  endfacet
  facet normal 1 -0 -0
    outer loop
      vertex -32 8.65493 6.68255
      vertex -32 6.42326 7.40766
      vertex -32 9.65839 6.06763
    endloop
  endfacet
  facet normal 1 -0 -0
    outer loop
      vertex -32 7.56763 7.13292
      vertex -32 6.42326 7.40766
      vertex -32 8.65493 6.68255
    endloop
  endfacet
  facet normal 2.15909e-16 0.233447 -0.972369
    outer loop
      vertex -3.16766e-16 -8.96352 1.42658
      vertex -2 -8.96352 1.42658
      vertex -3.28966e-16 -8.73465 1.48153
    endloop
  endfacet
  facet normal 2.15909e-16 0.233447 -0.972369
    outer loop
      vertex -3.28966e-16 -8.73465 1.48153
      vertex -2 -8.96352 1.42658
      vertex -2 -8.73465 1.48153
    endloop
  endfacet
  facet normal 2.2136e-16 0.0784569 -0.996918
    outer loop
      vertex -3.28966e-16 -8.73465 1.48153
      vertex -2 -8.73465 1.48153
      vertex -3.33067e-16 -8.5 1.5
    endloop
  endfacet
  facet normal 2.2136e-16 0.0784569 -0.996918
    outer loop
      vertex -3.33067e-16 -8.5 1.5
      vertex -2 -8.73465 1.48153
      vertex -2 -8.5 1.5
    endloop
  endfacet
  facet normal 2.05143e-16 0.382682 -0.92388
    outer loop
      vertex -2.96765e-16 -9.18099 1.33651
      vertex -2 -9.18099 1.33651
      vertex -3.16766e-16 -8.96352 1.42658
    endloop
  endfacet
  facet normal 2.05143e-16 0.382682 -0.92388
    outer loop
      vertex -3.16766e-16 -8.96352 1.42658
      vertex -2 -9.18099 1.33651
      vertex -2 -8.96352 1.42658
    endloop
  endfacet
  facet normal 1.89324e-16 0.522501 -0.852639
    outer loop
      vertex -2.69457e-16 -9.38168 1.21352
      vertex -2 -9.38168 1.21352
      vertex -2.96765e-16 -9.18099 1.33651
    endloop
  endfacet
  facet normal 1.89324e-16 0.522501 -0.852639
    outer loop
      vertex -2.96765e-16 -9.18099 1.33651
      vertex -2 -9.38168 1.21352
      vertex -2 -9.18099 1.33651
    endloop
  endfacet
  facet normal 1.68844e-16 0.649448 -0.760406
    outer loop
      vertex -2.35514e-16 -9.56066 1.06066
      vertex -2 -9.56066 1.06066
      vertex -2.69457e-16 -9.38168 1.21352
    endloop
  endfacet
  facet normal 1.68844e-16 0.649448 -0.760406
    outer loop
      vertex -2.69457e-16 -9.38168 1.21352
      vertex -2 -9.56066 1.06066
      vertex -2 -9.38168 1.21352
    endloop
  endfacet
  facet normal 1.44206e-16 0.760406 -0.649448
    outer loop
      vertex -1.95772e-16 -9.71352 0.881678
      vertex -2 -9.71352 0.881678
      vertex -2.35514e-16 -9.56066 1.06066
    endloop
  endfacet
  facet normal 1.44206e-16 0.760406 -0.649448
    outer loop
      vertex -2.35514e-16 -9.56066 1.06066
      vertex -2 -9.71352 0.881678
      vertex -2 -9.56066 1.06066
    endloop
  endfacet
  facet normal 1.16019e-16 0.852639 -0.522501
    outer loop
      vertex -1.51209e-16 -9.83651 0.680986
      vertex -2 -9.83651 0.680986
      vertex -1.95772e-16 -9.71352 0.881678
    endloop
  endfacet
  facet normal 1.16019e-16 0.852639 -0.522501
    outer loop
      vertex -1.95772e-16 -9.71352 0.881678
      vertex -2 -9.83651 0.680986
      vertex -2 -9.71352 0.881678
    endloop
  endfacet
  facet normal 8.49726e-17 0.92388 -0.382682
    outer loop
      vertex -1.02923e-16 -9.92658 0.463525
      vertex -2 -9.92658 0.463525
      vertex -1.51209e-16 -9.83651 0.680986
    endloop
  endfacet
  facet normal 8.49726e-17 0.92388 -0.382682
    outer loop
      vertex -1.51209e-16 -9.83651 0.680986
      vertex -2 -9.92658 0.463525
      vertex -2 -9.83651 0.680986
    endloop
  endfacet
  facet normal 5.18357e-17 0.972369 -0.233447
    outer loop
      vertex -5.21032e-17 -9.98153 0.234652
      vertex -2 -9.98153 0.234652
      vertex -1.02923e-16 -9.92658 0.463525
    endloop
  endfacet
  facet normal 5.18357e-17 0.972369 -0.233447
    outer loop
      vertex -1.02923e-16 -9.92658 0.463525
      vertex -2 -9.98153 0.234652
      vertex -2 -9.92658 0.463525
    endloop
  endfacet
  facet normal 1.74209e-17 0.996918 -0.0784569
    outer loop
      vertex 0 -10 0
      vertex -2 -10 -4.44089e-16
      vertex -5.21032e-17 -9.98153 0.234652
    endloop
  endfacet
  facet normal 1.74209e-17 0.996918 -0.0784569
    outer loop
      vertex -5.21032e-17 -9.98153 0.234652
      vertex -2 -10 -4.44089e-16
      vertex -2 -9.98153 0.234652
    endloop
  endfacet
  facet normal -1.74209e-17 0.996918 0.0784569
    outer loop
      vertex 5.21032e-17 -9.98153 -0.234652
      vertex -2 -9.98153 -0.234652
      vertex 0 -10 0
    endloop
  endfacet
  facet normal -1.74209e-17 0.996918 0.0784569
    outer loop
      vertex 0 -10 0
      vertex -2 -9.98153 -0.234652
      vertex -2 -10 -4.44089e-16
    endloop
  endfacet
  facet normal -5.18357e-17 0.972369 0.233447
    outer loop
      vertex 1.02923e-16 -9.92658 -0.463525
      vertex -2 -9.92658 -0.463525
      vertex 5.21032e-17 -9.98153 -0.234652
    endloop
  endfacet
  facet normal -5.18357e-17 0.972369 0.233447
    outer loop
      vertex 5.21032e-17 -9.98153 -0.234652
      vertex -2 -9.92658 -0.463525
      vertex -2 -9.98153 -0.234652
    endloop
  endfacet
  facet normal -8.49726e-17 0.92388 0.382682
    outer loop
      vertex 1.51209e-16 -9.83651 -0.680986
      vertex -2 -9.83651 -0.680986
      vertex 1.02923e-16 -9.92658 -0.463525
    endloop
  endfacet
  facet normal -8.49726e-17 0.92388 0.382682
    outer loop
      vertex 1.02923e-16 -9.92658 -0.463525
      vertex -2 -9.83651 -0.680986
      vertex -2 -9.92658 -0.463525
    endloop
  endfacet
  facet normal -1.16019e-16 0.852639 0.522501
    outer loop
      vertex 1.95772e-16 -9.71352 -0.881678
      vertex -2 -9.71352 -0.881678
      vertex 1.51209e-16 -9.83651 -0.680986
    endloop
  endfacet
  facet normal -1.16019e-16 0.852639 0.522501
    outer loop
      vertex 1.51209e-16 -9.83651 -0.680986
      vertex -2 -9.71352 -0.881678
      vertex -2 -9.83651 -0.680986
    endloop
  endfacet
  facet normal -1.44206e-16 0.760406 0.649448
    outer loop
      vertex 2.35514e-16 -9.56066 -1.06066
      vertex -2 -9.56066 -1.06066
      vertex 1.95772e-16 -9.71352 -0.881678
    endloop
  endfacet
  facet normal -1.44206e-16 0.760406 0.649448
    outer loop
      vertex 1.95772e-16 -9.71352 -0.881678
      vertex -2 -9.56066 -1.06066
      vertex -2 -9.71352 -0.881678
    endloop
  endfacet
  facet normal -1.6951e-16 0.649448 0.760406
    outer loop
      vertex 2.35514e-16 -9.56066 -1.06066
      vertex 2.69457e-16 -9.38168 -1.21352
      vertex -2 -9.38168 -1.21353
    endloop
  endfacet
  facet normal -1.68844e-16 0.649448 0.760406
    outer loop
      vertex -2 -9.56066 -1.06066
      vertex 2.35514e-16 -9.56066 -1.06066
      vertex -2 -9.38168 -1.21353
    endloop
  endfacet
  facet normal -1.84249e-16 0.522501 0.852639
    outer loop
      vertex 2.69457e-16 -9.38168 -1.21352
      vertex 2.96765e-16 -9.18099 -1.33651
      vertex -2 -9.18099 -1.33651
    endloop
  endfacet
  facet normal -1.89324e-16 0.522501 0.852639
    outer loop
      vertex -2 -9.38168 -1.21353
      vertex 2.69457e-16 -9.38168 -1.21352
      vertex -2 -9.18099 -1.33651
    endloop
  endfacet
  facet normal -2.06359e-16 0.382682 0.92388
    outer loop
      vertex 2.96765e-16 -9.18099 -1.33651
      vertex 3.16766e-16 -8.96352 -1.42658
      vertex -2 -8.96352 -1.42659
    endloop
  endfacet
  facet normal -2.05143e-16 0.382682 0.92388
    outer loop
      vertex -2 -9.18099 -1.33651
      vertex 2.96765e-16 -9.18099 -1.33651
      vertex -2 -8.96352 -1.42659
    endloop
  endfacet
  facet normal -2.17415e-16 0.233447 0.972369
    outer loop
      vertex 3.16766e-16 -8.96352 -1.42658
      vertex 3.28966e-16 -8.73465 -1.48153
      vertex -2 -8.73465 -1.48153
    endloop
  endfacet
  facet normal -2.15909e-16 0.233447 0.972369
    outer loop
      vertex -2 -8.96352 -1.42659
      vertex 3.16766e-16 -8.96352 -1.42658
      vertex -2 -8.73465 -1.48153
    endloop
  endfacet
  facet normal -2.21099e-16 0.0784569 0.996918
    outer loop
      vertex 3.28966e-16 -8.73465 -1.48153
      vertex 3.33067e-16 -8.5 -1.5
      vertex -2 -8.5 -1.5
    endloop
  endfacet
  facet normal -2.2136e-16 0.0784569 0.996918
    outer loop
      vertex -2 -8.73465 -1.48153
      vertex 3.28966e-16 -8.73465 -1.48153
      vertex -2 -8.5 -1.5
    endloop
  endfacet
  facet normal -2.2136e-16 -0.0784569 0.996918
    outer loop
      vertex -2 -8.5 -1.5
      vertex 3.33067e-16 -8.5 -1.5
      vertex 3.28966e-16 -8.26535 -1.48153
    endloop
  endfacet
  facet normal -2.2136e-16 -0.0784569 0.996918
    outer loop
      vertex -2 -8.26535 -1.48153
      vertex -2 -8.5 -1.5
      vertex 3.28966e-16 -8.26535 -1.48153
    endloop
  endfacet
  facet normal -2.15909e-16 -0.233447 0.972369
    outer loop
      vertex -2 -8.26535 -1.48153
      vertex 3.28966e-16 -8.26535 -1.48153
      vertex 3.16766e-16 -8.03647 -1.42658
    endloop
  endfacet
  facet normal -2.15909e-16 -0.233447 0.972369
    outer loop
      vertex -2 -8.03647 -1.42659
      vertex -2 -8.26535 -1.48153
      vertex 3.16766e-16 -8.03647 -1.42658
    endloop
  endfacet
  facet normal -2.05143e-16 -0.382682 0.92388
    outer loop
      vertex -2 -8.03647 -1.42659
      vertex 3.16766e-16 -8.03647 -1.42658
      vertex 2.96765e-16 -7.81901 -1.33651
    endloop
  endfacet
  facet normal -2.05143e-16 -0.382682 0.92388
    outer loop
      vertex -2 -7.81901 -1.33651
      vertex -2 -8.03647 -1.42659
      vertex 2.96765e-16 -7.81901 -1.33651
    endloop
  endfacet
  facet normal -1.89324e-16 -0.522501 0.852639
    outer loop
      vertex -2 -7.81901 -1.33651
      vertex 2.96765e-16 -7.81901 -1.33651
      vertex 2.69457e-16 -7.61832 -1.21352
    endloop
  endfacet
  facet normal -1.89324e-16 -0.522501 0.852639
    outer loop
      vertex -2 -7.61832 -1.21353
      vertex -2 -7.81901 -1.33651
      vertex 2.69457e-16 -7.61832 -1.21352
    endloop
  endfacet
  facet normal -1.68844e-16 -0.649448 0.760406
    outer loop
      vertex -2 -7.61832 -1.21353
      vertex 2.69457e-16 -7.61832 -1.21352
      vertex 2.35514e-16 -7.43934 -1.06066
    endloop
  endfacet
  facet normal -1.68844e-16 -0.649448 0.760406
    outer loop
      vertex -2 -7.43934 -1.06066
      vertex -2 -7.61832 -1.21353
      vertex 2.35514e-16 -7.43934 -1.06066
    endloop
  endfacet
  facet normal -1.44206e-16 -0.760406 0.649448
    outer loop
      vertex -2 -7.43934 -1.06066
      vertex 2.35514e-16 -7.43934 -1.06066
      vertex 1.95772e-16 -7.28647 -0.881678
    endloop
  endfacet
  facet normal -1.44206e-16 -0.760406 0.649448
    outer loop
      vertex -2 -7.28647 -0.881678
      vertex -2 -7.43934 -1.06066
      vertex 1.95772e-16 -7.28647 -0.881678
    endloop
  endfacet
  facet normal -1.16019e-16 -0.852639 0.522501
    outer loop
      vertex -2 -7.28647 -0.881678
      vertex 1.95772e-16 -7.28647 -0.881678
      vertex 1.51209e-16 -7.16349 -0.680986
    endloop
  endfacet
  facet normal -1.16019e-16 -0.852639 0.522501
    outer loop
      vertex -2 -7.16349 -0.680986
      vertex -2 -7.28647 -0.881678
      vertex 1.51209e-16 -7.16349 -0.680986
    endloop
  endfacet
  facet normal -8.49726e-17 -0.92388 0.382682
    outer loop
      vertex -2 -7.16349 -0.680986
      vertex 1.51209e-16 -7.16349 -0.680986
      vertex 1.02923e-16 -7.07341 -0.463525
    endloop
  endfacet
  facet normal -8.49726e-17 -0.92388 0.382682
    outer loop
      vertex -2 -7.07341 -0.463525
      vertex -2 -7.16349 -0.680986
      vertex 1.02923e-16 -7.07341 -0.463525
    endloop
  endfacet
  facet normal -5.18357e-17 -0.972369 0.233447
    outer loop
      vertex -2 -7.07341 -0.463525
      vertex 1.02923e-16 -7.07341 -0.463525
      vertex 5.21032e-17 -7.01847 -0.234652
    endloop
  endfacet
  facet normal -5.18357e-17 -0.972369 0.233447
    outer loop
      vertex -2 -7.01847 -0.234652
      vertex -2 -7.07341 -0.463525
      vertex 5.21032e-17 -7.01847 -0.234652
    endloop
  endfacet
  facet normal -1.74209e-17 -0.996918 0.0784569
    outer loop
      vertex -2 -7.01847 -0.234652
      vertex 5.21032e-17 -7.01847 -0.234652
      vertex 0 -7 0
    endloop
  endfacet
  facet normal -1.74209e-17 -0.996918 0.0784569
    outer loop
      vertex -2 -7 -4.44089e-16
      vertex -2 -7.01847 -0.234652
      vertex 0 -7 0
    endloop
  endfacet
  facet normal 1.74209e-17 -0.996918 -0.0784569
    outer loop
      vertex -2 -7 -4.44089e-16
      vertex 0 -7 0
      vertex -5.21032e-17 -7.01847 0.234652
    endloop
  endfacet
  facet normal 1.74209e-17 -0.996918 -0.0784569
    outer loop
      vertex -2 -7.01847 0.234652
      vertex -2 -7 -4.44089e-16
      vertex -5.21032e-17 -7.01847 0.234652
    endloop
  endfacet
  facet normal 5.18357e-17 -0.972369 -0.233447
    outer loop
      vertex -2 -7.01847 0.234652
      vertex -5.21032e-17 -7.01847 0.234652
      vertex -1.02923e-16 -7.07341 0.463525
    endloop
  endfacet
  facet normal 5.18357e-17 -0.972369 -0.233447
    outer loop
      vertex -2 -7.07341 0.463525
      vertex -2 -7.01847 0.234652
      vertex -1.02923e-16 -7.07341 0.463525
    endloop
  endfacet
  facet normal 8.49726e-17 -0.92388 -0.382682
    outer loop
      vertex -2 -7.07341 0.463525
      vertex -1.02923e-16 -7.07341 0.463525
      vertex -1.51209e-16 -7.16349 0.680986
    endloop
  endfacet
  facet normal 8.49726e-17 -0.92388 -0.382682
    outer loop
      vertex -2 -7.16349 0.680986
      vertex -2 -7.07341 0.463525
      vertex -1.51209e-16 -7.16349 0.680986
    endloop
  endfacet
  facet normal 1.16019e-16 -0.852639 -0.522501
    outer loop
      vertex -2 -7.16349 0.680986
      vertex -1.51209e-16 -7.16349 0.680986
      vertex -1.95772e-16 -7.28647 0.881678
    endloop
  endfacet
  facet normal 1.16019e-16 -0.852639 -0.522501
    outer loop
      vertex -2 -7.28647 0.881678
      vertex -2 -7.16349 0.680986
      vertex -1.95772e-16 -7.28647 0.881678
    endloop
  endfacet
  facet normal 1.44206e-16 -0.760406 -0.649448
    outer loop
      vertex -2 -7.28647 0.881678
      vertex -1.95772e-16 -7.28647 0.881678
      vertex -2.35514e-16 -7.43934 1.06066
    endloop
  endfacet
  facet normal 1.44206e-16 -0.760406 -0.649448
    outer loop
      vertex -2 -7.43934 1.06066
      vertex -2 -7.28647 0.881678
      vertex -2.35514e-16 -7.43934 1.06066
    endloop
  endfacet
  facet normal 1.68844e-16 -0.649448 -0.760406
    outer loop
      vertex -2.35514e-16 -7.43934 1.06066
      vertex -2.69457e-16 -7.61832 1.21352
      vertex -2 -7.43934 1.06066
    endloop
  endfacet
  facet normal 1.6951e-16 -0.649448 -0.760406
    outer loop
      vertex -2 -7.43934 1.06066
      vertex -2.69457e-16 -7.61832 1.21352
      vertex -2 -7.61832 1.21352
    endloop
  endfacet
  facet normal 1.89324e-16 -0.522501 -0.852639
    outer loop
      vertex -2.69457e-16 -7.61832 1.21352
      vertex -2.96765e-16 -7.81901 1.33651
      vertex -2 -7.61832 1.21352
    endloop
  endfacet
  facet normal 1.91619e-16 -0.522501 -0.852639
    outer loop
      vertex -2 -7.61832 1.21352
      vertex -2.96765e-16 -7.81901 1.33651
      vertex -2 -7.81901 1.33651
    endloop
  endfacet
  facet normal 2.05143e-16 -0.382682 -0.92388
    outer loop
      vertex -2.96765e-16 -7.81901 1.33651
      vertex -3.16766e-16 -8.03647 1.42658
      vertex -2 -7.81901 1.33651
    endloop
  endfacet
  facet normal 2.06359e-16 -0.382682 -0.92388
    outer loop
      vertex -2 -7.81901 1.33651
      vertex -3.16766e-16 -8.03647 1.42658
      vertex -2 -8.03647 1.42658
    endloop
  endfacet
  facet normal 2.15909e-16 -0.233447 -0.972369
    outer loop
      vertex -3.16766e-16 -8.03647 1.42658
      vertex -3.28966e-16 -8.26535 1.48153
      vertex -2 -8.03647 1.42658
    endloop
  endfacet
  facet normal 2.17415e-16 -0.233447 -0.972369
    outer loop
      vertex -2 -8.03647 1.42658
      vertex -3.28966e-16 -8.26535 1.48153
      vertex -2 -8.26535 1.48153
    endloop
  endfacet
  facet normal 2.2136e-16 -0.0784569 -0.996918
    outer loop
      vertex -3.28966e-16 -8.26535 1.48153
      vertex -3.33067e-16 -8.5 1.5
      vertex -2 -8.26535 1.48153
    endloop
  endfacet
  facet normal 2.21099e-16 -0.0784569 -0.996918
    outer loop
      vertex -2 -8.26535 1.48153
      vertex -3.33067e-16 -8.5 1.5
      vertex -2 -8.5 1.5
    endloop
  endfacet
  facet normal 2.15909e-16 0.233447 -0.972369
    outer loop
      vertex -3.16766e-16 8.03647 1.42658
      vertex -2 8.03647 1.42658
      vertex -3.28966e-16 8.26535 1.48153
    endloop
  endfacet
  facet normal 2.15909e-16 0.233447 -0.972369
    outer loop
      vertex -3.28966e-16 8.26535 1.48153
      vertex -2 8.03647 1.42658
      vertex -2 8.26535 1.48153
    endloop
  endfacet
  facet normal 2.2136e-16 0.0784569 -0.996918
    outer loop
      vertex -3.28966e-16 8.26535 1.48153
      vertex -2 8.26535 1.48153
      vertex -3.33067e-16 8.5 1.5
    endloop
  endfacet
  facet normal 2.2136e-16 0.0784569 -0.996918
    outer loop
      vertex -3.33067e-16 8.5 1.5
      vertex -2 8.26535 1.48153
      vertex -2 8.5 1.5
    endloop
  endfacet
  facet normal 2.05143e-16 0.382682 -0.92388
    outer loop
      vertex -2.96765e-16 7.81901 1.33651
      vertex -2 7.81901 1.33651
      vertex -3.16766e-16 8.03647 1.42658
    endloop
  endfacet
  facet normal 2.05143e-16 0.382682 -0.92388
    outer loop
      vertex -3.16766e-16 8.03647 1.42658
      vertex -2 7.81901 1.33651
      vertex -2 8.03647 1.42658
    endloop
  endfacet
  facet normal 1.89324e-16 0.522501 -0.852639
    outer loop
      vertex -2.69457e-16 7.61832 1.21352
      vertex -2 7.61832 1.21352
      vertex -2.96765e-16 7.81901 1.33651
    endloop
  endfacet
  facet normal 1.89324e-16 0.522501 -0.852639
    outer loop
      vertex -2.96765e-16 7.81901 1.33651
      vertex -2 7.61832 1.21352
      vertex -2 7.81901 1.33651
    endloop
  endfacet
  facet normal 1.68844e-16 0.649448 -0.760406
    outer loop
      vertex -2.35514e-16 7.43934 1.06066
      vertex -2 7.43934 1.06066
      vertex -2.69457e-16 7.61832 1.21352
    endloop
  endfacet
  facet normal 1.68844e-16 0.649448 -0.760406
    outer loop
      vertex -2.69457e-16 7.61832 1.21352
      vertex -2 7.43934 1.06066
      vertex -2 7.61832 1.21352
    endloop
  endfacet
  facet normal 1.44206e-16 0.760406 -0.649448
    outer loop
      vertex -1.95772e-16 7.28647 0.881678
      vertex -2 7.28647 0.881678
      vertex -2.35514e-16 7.43934 1.06066
    endloop
  endfacet
  facet normal 1.44206e-16 0.760406 -0.649448
    outer loop
      vertex -2.35514e-16 7.43934 1.06066
      vertex -2 7.28647 0.881678
      vertex -2 7.43934 1.06066
    endloop
  endfacet
  facet normal 1.16019e-16 0.852639 -0.522501
    outer loop
      vertex -1.51209e-16 7.16349 0.680986
      vertex -2 7.16349 0.680986
      vertex -1.95772e-16 7.28647 0.881678
    endloop
  endfacet
  facet normal 1.16019e-16 0.852639 -0.522501
    outer loop
      vertex -1.95772e-16 7.28647 0.881678
      vertex -2 7.16349 0.680986
      vertex -2 7.28647 0.881678
    endloop
  endfacet
  facet normal 8.49726e-17 0.92388 -0.382682
    outer loop
      vertex -1.02923e-16 7.07341 0.463525
      vertex -2 7.07341 0.463525
      vertex -1.51209e-16 7.16349 0.680986
    endloop
  endfacet
  facet normal 8.49726e-17 0.92388 -0.382682
    outer loop
      vertex -1.51209e-16 7.16349 0.680986
      vertex -2 7.07341 0.463525
      vertex -2 7.16349 0.680986
    endloop
  endfacet
  facet normal 5.18357e-17 0.972369 -0.233447
    outer loop
      vertex -5.21032e-17 7.01847 0.234652
      vertex -2 7.01847 0.234652
      vertex -1.02923e-16 7.07341 0.463525
    endloop
  endfacet
  facet normal 5.18357e-17 0.972369 -0.233447
    outer loop
      vertex -1.02923e-16 7.07341 0.463525
      vertex -2 7.01847 0.234652
      vertex -2 7.07341 0.463525
    endloop
  endfacet
  facet normal 1.74209e-17 0.996918 -0.0784569
    outer loop
      vertex 0 7 0
      vertex -2 7 -4.44089e-16
      vertex -5.21032e-17 7.01847 0.234652
    endloop
  endfacet
  facet normal 1.74209e-17 0.996918 -0.0784569
    outer loop
      vertex -5.21032e-17 7.01847 0.234652
      vertex -2 7 -4.44089e-16
      vertex -2 7.01847 0.234652
    endloop
  endfacet
  facet normal -1.74209e-17 0.996918 0.0784569
    outer loop
      vertex 5.21032e-17 7.01847 -0.234652
      vertex -2 7.01847 -0.234652
      vertex 0 7 0
    endloop
  endfacet
  facet normal -1.74209e-17 0.996918 0.0784569
    outer loop
      vertex 0 7 0
      vertex -2 7.01847 -0.234652
      vertex -2 7 -4.44089e-16
    endloop
  endfacet
  facet normal -5.18357e-17 0.972369 0.233447
    outer loop
      vertex 1.02923e-16 7.07341 -0.463525
      vertex -2 7.07341 -0.463525
      vertex 5.21032e-17 7.01847 -0.234652
    endloop
  endfacet
  facet normal -5.18357e-17 0.972369 0.233447
    outer loop
      vertex 5.21032e-17 7.01847 -0.234652
      vertex -2 7.07341 -0.463525
      vertex -2 7.01847 -0.234652
    endloop
  endfacet
  facet normal -8.49726e-17 0.92388 0.382682
    outer loop
      vertex 1.51209e-16 7.16349 -0.680986
      vertex -2 7.16349 -0.680986
      vertex 1.02923e-16 7.07341 -0.463525
    endloop
  endfacet
  facet normal -8.49726e-17 0.92388 0.382682
    outer loop
      vertex 1.02923e-16 7.07341 -0.463525
      vertex -2 7.16349 -0.680986
      vertex -2 7.07341 -0.463525
    endloop
  endfacet
  facet normal -1.16019e-16 0.852639 0.522501
    outer loop
      vertex 1.95772e-16 7.28647 -0.881678
      vertex -2 7.28647 -0.881678
      vertex 1.51209e-16 7.16349 -0.680986
    endloop
  endfacet
  facet normal -1.16019e-16 0.852639 0.522501
    outer loop
      vertex 1.51209e-16 7.16349 -0.680986
      vertex -2 7.28647 -0.881678
      vertex -2 7.16349 -0.680986
    endloop
  endfacet
  facet normal -1.44206e-16 0.760406 0.649448
    outer loop
      vertex 2.35514e-16 7.43934 -1.06066
      vertex -2 7.43934 -1.06066
      vertex 1.95772e-16 7.28647 -0.881678
    endloop
  endfacet
  facet normal -1.44206e-16 0.760406 0.649448
    outer loop
      vertex 1.95772e-16 7.28647 -0.881678
      vertex -2 7.43934 -1.06066
      vertex -2 7.28647 -0.881678
    endloop
  endfacet
  facet normal -1.6951e-16 0.649448 0.760406
    outer loop
      vertex 2.35514e-16 7.43934 -1.06066
      vertex 2.69457e-16 7.61832 -1.21352
      vertex -2 7.61832 -1.21353
    endloop
  endfacet
  facet normal -1.68844e-16 0.649448 0.760406
    outer loop
      vertex -2 7.43934 -1.06066
      vertex 2.35514e-16 7.43934 -1.06066
      vertex -2 7.61832 -1.21353
    endloop
  endfacet
  facet normal -1.91619e-16 0.522501 0.852639
    outer loop
      vertex 2.69457e-16 7.61832 -1.21352
      vertex 2.96765e-16 7.81901 -1.33651
      vertex -2 7.81901 -1.33651
    endloop
  endfacet
  facet normal -1.89324e-16 0.522501 0.852639
    outer loop
      vertex -2 7.61832 -1.21353
      vertex 2.69457e-16 7.61832 -1.21352
      vertex -2 7.81901 -1.33651
    endloop
  endfacet
  facet normal -2.06359e-16 0.382682 0.92388
    outer loop
      vertex 2.96765e-16 7.81901 -1.33651
      vertex 3.16766e-16 8.03647 -1.42658
      vertex -2 8.03647 -1.42659
    endloop
  endfacet
  facet normal -2.05143e-16 0.382682 0.92388
    outer loop
      vertex -2 7.81901 -1.33651
      vertex 2.96765e-16 7.81901 -1.33651
      vertex -2 8.03647 -1.42659
    endloop
  endfacet
  facet normal -2.17415e-16 0.233447 0.972369
    outer loop
      vertex 3.16766e-16 8.03647 -1.42658
      vertex 3.28966e-16 8.26535 -1.48153
      vertex -2 8.26535 -1.48153
    endloop
  endfacet
  facet normal -2.15909e-16 0.233447 0.972369
    outer loop
      vertex -2 8.03647 -1.42659
      vertex 3.16766e-16 8.03647 -1.42658
      vertex -2 8.26535 -1.48153
    endloop
  endfacet
  facet normal -2.21099e-16 0.0784569 0.996918
    outer loop
      vertex 3.28966e-16 8.26535 -1.48153
      vertex 3.33067e-16 8.5 -1.5
      vertex -2 8.5 -1.5
    endloop
  endfacet
  facet normal -2.2136e-16 0.0784569 0.996918
    outer loop
      vertex -2 8.26535 -1.48153
      vertex 3.28966e-16 8.26535 -1.48153
      vertex -2 8.5 -1.5
    endloop
  endfacet
  facet normal -2.2136e-16 -0.0784569 0.996918
    outer loop
      vertex -2 8.5 -1.5
      vertex 3.33067e-16 8.5 -1.5
      vertex 3.28966e-16 8.73465 -1.48153
    endloop
  endfacet
  facet normal -2.2136e-16 -0.0784569 0.996918
    outer loop
      vertex -2 8.73465 -1.48153
      vertex -2 8.5 -1.5
      vertex 3.28966e-16 8.73465 -1.48153
    endloop
  endfacet
  facet normal -2.15909e-16 -0.233447 0.972369
    outer loop
      vertex -2 8.73465 -1.48153
      vertex 3.28966e-16 8.73465 -1.48153
      vertex 3.16766e-16 8.96352 -1.42658
    endloop
  endfacet
  facet normal -2.15909e-16 -0.233447 0.972369
    outer loop
      vertex -2 8.96352 -1.42659
      vertex -2 8.73465 -1.48153
      vertex 3.16766e-16 8.96352 -1.42658
    endloop
  endfacet
  facet normal -2.05143e-16 -0.382682 0.92388
    outer loop
      vertex -2 8.96352 -1.42659
      vertex 3.16766e-16 8.96352 -1.42658
      vertex 2.96765e-16 9.18099 -1.33651
    endloop
  endfacet
  facet normal -2.05143e-16 -0.382682 0.92388
    outer loop
      vertex -2 9.18099 -1.33651
      vertex -2 8.96352 -1.42659
      vertex 2.96765e-16 9.18099 -1.33651
    endloop
  endfacet
  facet normal -1.89324e-16 -0.522501 0.852639
    outer loop
      vertex -2 9.18099 -1.33651
      vertex 2.96765e-16 9.18099 -1.33651
      vertex 2.69457e-16 9.38168 -1.21352
    endloop
  endfacet
  facet normal -1.89324e-16 -0.522501 0.852639
    outer loop
      vertex -2 9.38168 -1.21353
      vertex -2 9.18099 -1.33651
      vertex 2.69457e-16 9.38168 -1.21352
    endloop
  endfacet
  facet normal -1.68844e-16 -0.649448 0.760406
    outer loop
      vertex -2 9.38168 -1.21353
      vertex 2.69457e-16 9.38168 -1.21352
      vertex 2.35514e-16 9.56066 -1.06066
    endloop
  endfacet
  facet normal -1.68844e-16 -0.649448 0.760406
    outer loop
      vertex -2 9.56066 -1.06066
      vertex -2 9.38168 -1.21353
      vertex 2.35514e-16 9.56066 -1.06066
    endloop
  endfacet
  facet normal -1.44206e-16 -0.760406 0.649448
    outer loop
      vertex -2 9.56066 -1.06066
      vertex 2.35514e-16 9.56066 -1.06066
      vertex 1.95772e-16 9.71352 -0.881678
    endloop
  endfacet
  facet normal -1.44206e-16 -0.760406 0.649448
    outer loop
      vertex -2 9.71352 -0.881678
      vertex -2 9.56066 -1.06066
      vertex 1.95772e-16 9.71352 -0.881678
    endloop
  endfacet
  facet normal -1.16019e-16 -0.852639 0.522501
    outer loop
      vertex -2 9.71352 -0.881678
      vertex 1.95772e-16 9.71352 -0.881678
      vertex 1.51209e-16 9.83651 -0.680986
    endloop
  endfacet
  facet normal -1.16019e-16 -0.852639 0.522501
    outer loop
      vertex -2 9.83651 -0.680986
      vertex -2 9.71352 -0.881678
      vertex 1.51209e-16 9.83651 -0.680986
    endloop
  endfacet
  facet normal -8.49726e-17 -0.92388 0.382682
    outer loop
      vertex -2 9.83651 -0.680986
      vertex 1.51209e-16 9.83651 -0.680986
      vertex 1.02923e-16 9.92658 -0.463525
    endloop
  endfacet
  facet normal -8.49726e-17 -0.92388 0.382682
    outer loop
      vertex -2 9.92658 -0.463525
      vertex -2 9.83651 -0.680986
      vertex 1.02923e-16 9.92658 -0.463525
    endloop
  endfacet
  facet normal -5.18357e-17 -0.972369 0.233447
    outer loop
      vertex -2 9.92658 -0.463525
      vertex 1.02923e-16 9.92658 -0.463525
      vertex 5.21032e-17 9.98153 -0.234652
    endloop
  endfacet
  facet normal -5.18357e-17 -0.972369 0.233447
    outer loop
      vertex -2 9.98153 -0.234652
      vertex -2 9.92658 -0.463525
      vertex 5.21032e-17 9.98153 -0.234652
    endloop
  endfacet
  facet normal -1.74209e-17 -0.996918 0.0784569
    outer loop
      vertex -2 9.98153 -0.234652
      vertex 5.21032e-17 9.98153 -0.234652
      vertex 0 10 0
    endloop
  endfacet
  facet normal -1.74209e-17 -0.996918 0.0784569
    outer loop
      vertex -2 10 -4.44089e-16
      vertex -2 9.98153 -0.234652
      vertex 0 10 0
    endloop
  endfacet
  facet normal 1.74209e-17 -0.996918 -0.0784569
    outer loop
      vertex -2 10 -4.44089e-16
      vertex 0 10 0
      vertex -5.21032e-17 9.98153 0.234652
    endloop
  endfacet
  facet normal 1.74209e-17 -0.996918 -0.0784569
    outer loop
      vertex -2 9.98153 0.234652
      vertex -2 10 -4.44089e-16
      vertex -5.21032e-17 9.98153 0.234652
    endloop
  endfacet
  facet normal 5.18357e-17 -0.972369 -0.233447
    outer loop
      vertex -2 9.98153 0.234652
      vertex -5.21032e-17 9.98153 0.234652
      vertex -1.02923e-16 9.92658 0.463525
    endloop
  endfacet
  facet normal 5.18357e-17 -0.972369 -0.233447
    outer loop
      vertex -2 9.92658 0.463525
      vertex -2 9.98153 0.234652
      vertex -1.02923e-16 9.92658 0.463525
    endloop
  endfacet
  facet normal 8.49726e-17 -0.92388 -0.382682
    outer loop
      vertex -2 9.92658 0.463525
      vertex -1.02923e-16 9.92658 0.463525
      vertex -1.51209e-16 9.83651 0.680986
    endloop
  endfacet
  facet normal 8.49726e-17 -0.92388 -0.382682
    outer loop
      vertex -2 9.83651 0.680986
      vertex -2 9.92658 0.463525
      vertex -1.51209e-16 9.83651 0.680986
    endloop
  endfacet
  facet normal 1.16019e-16 -0.852639 -0.522501
    outer loop
      vertex -2 9.83651 0.680986
      vertex -1.51209e-16 9.83651 0.680986
      vertex -1.95772e-16 9.71352 0.881678
    endloop
  endfacet
  facet normal 1.16019e-16 -0.852639 -0.522501
    outer loop
      vertex -2 9.71352 0.881678
      vertex -2 9.83651 0.680986
      vertex -1.95772e-16 9.71352 0.881678
    endloop
  endfacet
  facet normal 1.44206e-16 -0.760406 -0.649448
    outer loop
      vertex -2 9.71352 0.881678
      vertex -1.95772e-16 9.71352 0.881678
      vertex -2.35514e-16 9.56066 1.06066
    endloop
  endfacet
  facet normal 1.44206e-16 -0.760406 -0.649448
    outer loop
      vertex -2 9.56066 1.06066
      vertex -2 9.71352 0.881678
      vertex -2.35514e-16 9.56066 1.06066
    endloop
  endfacet
  facet normal 1.68844e-16 -0.649448 -0.760406
    outer loop
      vertex -2.35514e-16 9.56066 1.06066
      vertex -2.69457e-16 9.38168 1.21352
      vertex -2 9.56066 1.06066
    endloop
  endfacet
  facet normal 1.6951e-16 -0.649448 -0.760406
    outer loop
      vertex -2 9.56066 1.06066
      vertex -2.69457e-16 9.38168 1.21352
      vertex -2 9.38168 1.21352
    endloop
  endfacet
  facet normal 1.89324e-16 -0.522501 -0.852639
    outer loop
      vertex -2.69457e-16 9.38168 1.21352
      vertex -2.96765e-16 9.18099 1.33651
      vertex -2 9.38168 1.21352
    endloop
  endfacet
  facet normal 1.84249e-16 -0.522501 -0.852639
    outer loop
      vertex -2 9.38168 1.21352
      vertex -2.96765e-16 9.18099 1.33651
      vertex -2 9.18099 1.33651
    endloop
  endfacet
  facet normal 2.05143e-16 -0.382682 -0.92388
    outer loop
      vertex -2.96765e-16 9.18099 1.33651
      vertex -3.16766e-16 8.96352 1.42658
      vertex -2 9.18099 1.33651
    endloop
  endfacet
  facet normal 2.06359e-16 -0.382682 -0.92388
    outer loop
      vertex -2 9.18099 1.33651
      vertex -3.16766e-16 8.96352 1.42658
      vertex -2 8.96352 1.42658
    endloop
  endfacet
  facet normal 2.15909e-16 -0.233447 -0.972369
    outer loop
      vertex -3.16766e-16 8.96352 1.42658
      vertex -3.28966e-16 8.73465 1.48153
      vertex -2 8.96352 1.42658
    endloop
  endfacet
  facet normal 2.17415e-16 -0.233447 -0.972369
    outer loop
      vertex -2 8.96352 1.42658
      vertex -3.28966e-16 8.73465 1.48153
      vertex -2 8.73465 1.48153
    endloop
  endfacet
  facet normal 2.2136e-16 -0.0784569 -0.996918
    outer loop
      vertex -3.28966e-16 8.73465 1.48153
      vertex -3.33067e-16 8.5 1.5
      vertex -2 8.73465 1.48153
    endloop
  endfacet
  facet normal 2.21099e-16 -0.0784569 -0.996918
    outer loop
      vertex -2 8.73465 1.48153
      vertex -3.33067e-16 8.5 1.5
      vertex -2 8.5 1.5
    endloop
  endfacet
endsolid OpenSCAD_Model
